<svg xmlns="http://www.w3.org/2000/svg" xmlns:xlink="http://www.w3.org/1999/xlink" width="500" zoomAndPan="magnify" viewBox="0 0 375 374.999991" height="500" preserveAspectRatio="xMidYMid meet" version="1.0"><defs><clipPath id="b41be6372b"><path d="M 0 114 L 375 114 L 375 318.152344 L 0 318.152344 Z M 0 114 " clip-rule="nonzero"/></clipPath></defs><g clip-path="url(#b41be6372b)"><path fill="#30792a" d="M 249.589844 136.242188 C 257.777344 138.875 265.835938 142.035156 273.625 145.664062 C 308.015625 161.710938 338.414062 185.214844 362.648438 214.445312 C 363.679688 215.679688 363.679688 217.441406 362.648438 218.675781 C 338.414062 247.90625 308.015625 271.375 273.625 287.457031 C 265.835938 291.085938 257.777344 294.246094 249.589844 296.878906 C 293.96875 262.585938 302.089844 198.800781 267.800781 154.453125 C 262.539062 147.628906 256.414062 141.503906 249.589844 136.242188 Z M 125.378906 136.242188 C 81 170.566406 72.875 234.320312 107.167969 278.667969 C 112.425781 285.492188 118.550781 291.617188 125.378906 296.878906 C 117.152344 294.246094 109.097656 291.085938 101.308594 287.457031 C 66.917969 271.375 36.554688 247.90625 12.316406 218.675781 C 11.285156 217.441406 11.285156 215.679688 12.316406 214.445312 C 36.554688 185.214844 66.917969 161.746094 101.308594 145.664062 C 109.097656 142.035156 117.152344 138.875 125.378906 136.277344 Z M 185.96875 125.492188 C 235.671875 124.65625 276.554688 164.277344 277.421875 213.945312 C 277.421875 214.8125 277.421875 215.710938 277.421875 216.578125 C 278.054688 266.25 238.335938 307.066406 188.664062 307.730469 C 138.960938 308.363281 98.144531 268.613281 97.511719 218.941406 C 97.511719 218.140625 97.511719 217.34375 97.511719 216.578125 C 96.878906 167.003906 136.429688 126.289062 185.96875 125.492188 Z M 195.457031 115.101562 C 161.332031 113.839844 127.375 120.730469 96.445312 135.179688 C 60.523438 151.992188 28.730469 176.527344 3.429688 207.054688 C -1.132812 212.582031 -1.132812 220.570312 3.429688 226.066406 C 28.730469 256.59375 60.523438 281.128906 96.445312 297.941406 C 154.140625 324.910156 220.859375 324.910156 278.585938 297.941406 C 314.476562 281.128906 346.269531 256.59375 371.570312 226.066406 C 376.132812 220.570312 376.132812 212.582031 371.570312 207.054688 C 346.269531 176.527344 314.476562 151.992188 278.585938 135.179688 C 252.484375 122.992188 224.222656 116.167969 195.457031 115.101562 " fill-opacity="1" fill-rule="nonzero"/></g><path fill="#30792a" d="M 221.589844 216.578125 C 221.957031 197.734375 207.042969 182.152344 188.199219 181.753906 C 169.355469 181.355469 153.773438 196.300781 153.375 215.144531 C 153.375 215.613281 153.375 216.078125 153.375 216.578125 C 152.976562 235.386719 167.925781 251 186.765625 251.367188 C 205.609375 251.765625 221.191406 236.820312 221.589844 217.976562 C 221.589844 217.507812 221.589844 217.042969 221.589844 216.578125 " fill-opacity="1" fill-rule="nonzero"/><path fill="#30792a" d="M 67.015625 98.324219 L 90.085938 117.566406 C 92.585938 119.566406 96.214844 119.164062 98.210938 116.667969 C 100.140625 114.269531 99.84375 110.742188 97.480469 108.679688 L 74.40625 89.433594 C 71.910156 87.4375 68.28125 87.835938 66.285156 90.335938 C 64.320312 92.765625 64.652344 96.292969 67.015625 98.324219 " fill-opacity="1" fill-rule="nonzero"/><path fill="#30792a" d="M 300.527344 89.433594 L 277.421875 108.679688 C 274.992188 110.742188 274.65625 114.402344 276.6875 116.835938 C 278.785156 119.296875 282.414062 119.632812 284.878906 117.566406 L 307.949219 98.324219 C 310.347656 96.226562 310.648438 92.566406 308.515625 90.167969 C 306.484375 87.804688 302.988281 87.503906 300.527344 89.433594 " fill-opacity="1" fill-rule="nonzero"/><path fill="#30792a" d="M 181.707031 62.234375 L 181.707031 92.265625 C 181.808594 95.460938 184.503906 97.957031 187.699219 97.824219 C 190.730469 97.691406 193.125 95.292969 193.257812 92.265625 L 193.257812 62.234375 C 193.125 59.039062 190.464844 56.542969 187.234375 56.675781 C 184.238281 56.808594 181.808594 59.207031 181.707031 62.234375 " fill-opacity="1" fill-rule="nonzero"/></svg>