<svg xmlns="http://www.w3.org/2000/svg" xmlns:xlink="http://www.w3.org/1999/xlink" width="500" zoomAndPan="magnify" viewBox="0 0 375 374.999991" height="500" preserveAspectRatio="xMidYMid meet" version="1.0"><defs><clipPath id="45e807350e"><path d="M 0 37 L 375 37 L 375 339.445312 L 0 339.445312 Z M 0 37 " clip-rule="nonzero"/></clipPath></defs><path fill="#30792a" d="M 126.117188 157.964844 C 117.082031 156.898438 109.007812 161.132812 103.347656 169.90625 C 95.085938 182.714844 93.773438 202.082031 100.417969 213.074219 C 104.445312 219.742188 109.976562 223.238281 116.320312 223.238281 C 117.980469 223.230469 119.613281 223.007812 121.214844 222.578125 C 135.160156 218.90625 147.53125 200.671875 147.878906 188.320312 C 148.078125 181.101562 146.433594 174.5 143.117188 169.230469 C 139.179688 162.972656 132.828125 158.761719 126.117188 157.964844 Z M 140.453125 188.113281 C 140.183594 197.667969 129.890625 212.613281 119.324219 215.398438 C 114.207031 216.746094 110.09375 214.730469 106.773438 209.234375 C 101.632812 200.726562 102.949219 184.230469 109.59375 173.933594 C 112.21875 169.859375 116.683594 165.234375 123.425781 165.234375 C 124.03125 165.234375 124.636719 165.269531 125.242188 165.34375 C 129.742188 165.878906 134.078125 168.8125 136.832031 173.1875 C 140.027344 178.265625 140.5625 184.109375 140.453125 188.113281 Z M 140.453125 188.113281 " fill-opacity="1" fill-rule="nonzero"/><path fill="#30792a" d="M 190.804688 165.917969 C 182.007812 168.460938 175.058594 177.046875 173.097656 187.78125 C 171.140625 198.515625 172.730469 213.535156 180.859375 221.078125 C 182.496094 222.605469 184.359375 223.769531 186.453125 224.574219 C 188.542969 225.375 190.707031 225.757812 192.945312 225.722656 C 195.039062 225.707031 197.09375 225.429688 199.113281 224.886719 C 206.246094 223.027344 212.503906 217.644531 216.742188 209.726562 C 222.140625 199.65625 222.753906 188.28125 218.394531 179.304688 C 213.292969 168.796875 201.175781 162.914062 190.804688 165.917969 Z M 210.199219 206.222656 C 206.992188 212.207031 202.273438 216.390625 197.242188 217.699219 C 192.457031 218.949219 188.746094 218.273438 185.910156 215.632812 C 180.164062 210.296875 178.785156 197.988281 180.40625 189.113281 C 181.601562 182.566406 185.914062 175.058594 192.867188 173.046875 C 194.023438 172.71875 195.203125 172.554688 196.40625 172.558594 C 202.433594 172.558594 208.789062 176.523438 211.714844 182.550781 C 214.988281 189.292969 214.40625 198.363281 210.199219 206.222656 Z M 210.199219 206.222656 " fill-opacity="1" fill-rule="nonzero"/><path fill="#30792a" d="M 211.414062 274.648438 L 110.273438 275.054688 C 109.792969 275.054688 109.328125 275.148438 108.882812 275.328125 C 108.4375 275.511719 108.039062 275.769531 107.695312 276.105469 C 107.351562 276.441406 107.082031 276.832031 106.886719 277.273438 C 106.691406 277.710938 106.585938 278.175781 106.574219 278.65625 L 105.023438 329.519531 C 105.007812 330.011719 105.089844 330.484375 105.261719 330.941406 C 105.433594 331.402344 105.6875 331.808594 106.023438 332.167969 C 106.355469 332.527344 106.746094 332.808594 107.195312 333.011719 C 107.640625 333.214844 108.109375 333.324219 108.597656 333.34375 L 210.304688 337.140625 C 210.347656 337.140625 210.394531 337.140625 210.441406 337.140625 C 210.929688 337.140625 211.398438 337.050781 211.847656 336.867188 C 212.300781 336.679688 212.699219 336.417969 213.046875 336.078125 C 213.394531 335.734375 213.664062 335.34375 213.855469 334.894531 C 214.046875 334.445312 214.148438 333.980469 214.15625 333.492188 L 215.136719 278.425781 C 215.152344 277.386719 214.796875 276.496094 214.066406 275.753906 C 213.308594 275.082031 212.421875 274.714844 211.414062 274.648438 Z M 206.800781 329.578125 L 112.566406 326.058594 L 113.894531 282.46875 L 207.648438 282.09375 Z M 206.800781 329.578125 " fill-opacity="1" fill-rule="nonzero"/><path fill="#30792a" d="M 123.773438 315.324219 L 161.902344 317.007812 C 161.957031 317.007812 162.011719 317.007812 162.066406 317.007812 C 162.316406 317.007812 162.5625 316.984375 162.808594 316.933594 C 163.050781 316.886719 163.289062 316.8125 163.519531 316.714844 C 163.746094 316.617188 163.964844 316.496094 164.171875 316.355469 C 164.375 316.214844 164.566406 316.054688 164.738281 315.875 C 164.914062 315.695312 165.066406 315.5 165.199219 315.289062 C 165.332031 315.078125 165.445312 314.855469 165.535156 314.625 C 165.625 314.390625 165.6875 314.152344 165.730469 313.90625 C 165.769531 313.660156 165.789062 313.410156 165.777344 313.164062 L 165.210938 297.453125 C 165.195312 296.96875 165.085938 296.503906 164.890625 296.0625 C 164.691406 295.617188 164.417969 295.230469 164.066406 294.894531 C 163.714844 294.558594 163.3125 294.304688 162.859375 294.128906 C 162.410156 293.949219 161.941406 293.867188 161.453125 293.875 L 124.304688 294.3125 C 123.828125 294.316406 123.367188 294.410156 122.921875 294.59375 C 122.480469 294.777344 122.089844 295.039062 121.746094 295.375 C 121.40625 295.710938 121.136719 296.097656 120.945312 296.535156 C 120.753906 296.972656 120.652344 297.433594 120.636719 297.914062 L 120.222656 311.5 C 120.207031 311.988281 120.285156 312.460938 120.457031 312.917969 C 120.628906 313.375 120.878906 313.78125 121.210938 314.140625 C 121.542969 314.5 121.933594 314.78125 122.375 314.984375 C 122.820312 315.191406 123.285156 315.304688 123.773438 315.324219 Z M 127.953125 301.699219 L 157.917969 301.347656 L 158.210938 309.410156 L 127.757812 308.066406 Z M 127.953125 301.699219 " fill-opacity="1" fill-rule="nonzero"/><path fill="#30792a" d="M 182.523438 319.101562 C 184.351562 320.019531 186.289062 320.480469 188.335938 320.484375 C 191.199219 320.453125 193.808594 319.621094 196.160156 317.984375 C 196.933594 317.464844 197.648438 316.871094 198.308594 316.210938 C 198.96875 315.550781 199.554688 314.832031 200.074219 314.058594 C 200.59375 313.28125 201.03125 312.464844 201.386719 311.601562 C 201.746094 310.738281 202.015625 309.851562 202.199219 308.9375 C 202.382812 308.023438 202.476562 307.097656 202.476562 306.164062 C 202.480469 305.230469 202.390625 304.308594 202.214844 303.390625 C 202.035156 302.476562 201.769531 301.585938 201.414062 300.722656 C 201.0625 299.859375 200.628906 299.039062 200.113281 298.261719 C 199.597656 297.480469 199.015625 296.761719 198.359375 296.097656 C 197.703125 295.433594 196.988281 294.839844 196.21875 294.316406 C 195.445312 293.792969 194.628906 293.347656 193.769531 292.984375 C 192.910156 292.621094 192.023438 292.34375 191.113281 292.152344 C 190.199219 291.964844 189.277344 291.863281 188.34375 291.855469 C 187.410156 291.84375 186.484375 291.925781 185.566406 292.097656 C 184.652344 292.269531 183.757812 292.53125 182.894531 292.878906 C 182.027344 293.222656 181.203125 293.652344 180.421875 294.160156 C 179.390625 294.785156 178.460938 295.535156 177.636719 296.414062 C 176.808594 297.289062 176.113281 298.261719 175.554688 299.328125 C 174.992188 300.394531 174.582031 301.515625 174.324219 302.691406 C 174.070312 303.871094 173.972656 305.0625 174.042969 306.265625 C 174.140625 307.609375 174.40625 308.917969 174.839844 310.191406 C 175.277344 311.464844 175.863281 312.667969 176.605469 313.789062 C 177.347656 314.914062 178.222656 315.925781 179.222656 316.824219 C 180.226562 317.726562 181.324219 318.484375 182.523438 319.101562 Z M 184.449219 300.398438 C 184.824219 300.15625 185.21875 299.953125 185.636719 299.785156 C 186.050781 299.621094 186.476562 299.496094 186.917969 299.414062 C 187.359375 299.332031 187.800781 299.296875 188.246094 299.300781 C 188.695312 299.304688 189.136719 299.355469 189.574219 299.445312 C 190.011719 299.535156 190.4375 299.671875 190.847656 299.84375 C 191.257812 300.019531 191.648438 300.230469 192.019531 300.484375 C 192.390625 300.734375 192.730469 301.019531 193.046875 301.335938 C 193.359375 301.65625 193.640625 302 193.886719 302.375 C 194.132812 302.746094 194.339844 303.140625 194.507812 303.554688 C 194.679688 303.96875 194.808594 304.394531 194.894531 304.832031 C 194.980469 305.269531 195.023438 305.714844 195.019531 306.160156 C 195.019531 306.609375 194.976562 307.050781 194.890625 307.488281 C 194.800781 307.925781 194.671875 308.351562 194.503906 308.765625 C 194.332031 309.179688 194.121094 309.570312 193.875 309.945312 C 193.628906 310.316406 193.347656 310.660156 193.03125 310.976562 C 192.714844 311.296875 192.375 311.578125 192.003906 311.828125 C 191.570312 312.167969 191.097656 312.4375 190.585938 312.640625 C 190.078125 312.84375 189.546875 312.972656 189 313.027344 C 188.453125 313.082031 187.910156 313.0625 187.371094 312.960938 C 186.828125 312.863281 186.3125 312.691406 185.820312 312.445312 C 185.207031 312.125 184.644531 311.730469 184.132812 311.269531 C 183.621094 310.804688 183.171875 310.28125 182.789062 309.707031 C 182.410156 309.128906 182.105469 308.511719 181.878906 307.859375 C 181.652344 307.203125 181.511719 306.53125 181.457031 305.84375 C 181.421875 305.292969 181.46875 304.75 181.589844 304.214844 C 181.710938 303.679688 181.902344 303.171875 182.167969 302.6875 C 182.433594 302.207031 182.757812 301.769531 183.148438 301.382812 C 183.535156 300.992188 183.96875 300.664062 184.449219 300.398438 Z M 184.449219 300.398438 " fill-opacity="1" fill-rule="nonzero"/><g clip-path="url(#45e807350e)"><path fill="#30792a" d="M 370.894531 333.480469 C 369.296875 331.125 367.488281 328.941406 365.472656 326.933594 C 363.453125 324.921875 361.265625 323.121094 358.902344 321.527344 C 356.542969 319.9375 354.050781 318.582031 351.433594 317.46875 C 348.8125 316.351562 346.109375 315.496094 343.324219 314.894531 C 338.707031 275.484375 311.21875 242.738281 269.101562 226.589844 C 260.742188 188.96875 236.085938 144.003906 191.132812 128.34375 C 183.183594 125.617188 175.015625 124.011719 166.628906 123.523438 C 169.257812 107.449219 174.070312 92.058594 181.058594 77.351562 C 182.652344 77.742188 184.269531 77.941406 185.910156 77.941406 C 187.410156 77.9375 188.894531 77.789062 190.363281 77.492188 C 191.457031 77.257812 192.527344 76.933594 193.570312 76.523438 C 194.617188 76.117188 195.621094 75.625 196.585938 75.054688 C 197.550781 74.484375 198.464844 73.839844 199.324219 73.121094 C 200.1875 72.402344 200.984375 71.621094 201.71875 70.773438 C 202.453125 69.925781 203.117188 69.027344 203.707031 68.074219 C 204.296875 67.121094 204.804688 66.125 205.234375 65.089844 C 205.664062 64.054688 206.007812 62.992188 206.265625 61.898438 C 206.523438 60.808594 206.695312 59.703125 206.773438 58.585938 C 206.816406 57.460938 206.765625 56.339844 206.621094 55.222656 C 206.480469 54.105469 206.246094 53.007812 205.921875 51.929688 C 205.597656 50.851562 205.183594 49.804688 204.6875 48.796875 C 204.191406 47.785156 203.613281 46.824219 202.957031 45.90625 C 202.300781 44.992188 201.574219 44.136719 200.777344 43.34375 C 199.980469 42.546875 199.125 41.824219 198.207031 41.171875 C 197.289062 40.515625 196.324219 39.941406 195.3125 39.449219 C 194.300781 38.953125 193.257812 38.546875 192.175781 38.226562 C 183.390625 35.78125 173.320312 40.210938 169.230469 48.3125 C 165.429688 55.855469 166.015625 64.410156 170.75 70.640625 C 171.78125 71.988281 172.980469 73.167969 174.34375 74.179688 C 166.902344 89.832031 161.832031 106.214844 159.128906 123.328125 C 130.0625 123.703125 100.933594 136.734375 82.6875 159.414062 C 72.257812 172.375 64.839844 188.261719 60.28125 207.382812 C 59.046875 205.082031 57.929688 202.726562 56.929688 200.316406 C 55.925781 197.90625 55.050781 195.453125 54.292969 192.957031 C 53.535156 190.460938 52.902344 187.929688 52.398438 185.371094 C 51.890625 182.808594 51.515625 180.230469 51.265625 177.632812 C 51.015625 175.035156 50.894531 172.433594 50.902344 169.824219 C 50.910156 167.214844 51.046875 164.613281 51.316406 162.015625 C 51.582031 159.421875 51.976562 156.84375 52.5 154.289062 C 53.019531 151.730469 53.667969 149.207031 54.441406 146.714844 C 57.257812 146.164062 60.011719 145.382812 62.695312 144.371094 C 65.382812 143.355469 67.960938 142.125 70.4375 140.675781 C 72.917969 139.222656 75.253906 137.574219 77.453125 135.730469 C 79.648438 133.882812 81.679688 131.867188 83.535156 129.679688 C 94.042969 117.097656 98.214844 99.652344 94.683594 83.019531 C 94.597656 82.617188 94.449219 82.238281 94.238281 81.882812 C 94.027344 81.53125 93.761719 81.21875 93.449219 80.953125 C 93.132812 80.6875 92.785156 80.480469 92.398438 80.328125 C 92.015625 80.179688 91.617188 80.097656 91.203125 80.082031 C 87.164062 79.800781 83.152344 79.308594 79.164062 78.605469 C 74.902344 77.855469 70.609375 77.339844 66.289062 77.050781 C 65.179688 77.015625 64.238281 77.390625 63.460938 78.183594 C 63.09375 78.566406 62.820312 79.003906 62.640625 79.503906 C 62.460938 80.003906 62.390625 80.519531 62.433594 81.046875 C 62.578125 83.09375 62.480469 85.132812 62.140625 87.15625 C 61.800781 89.183594 61.226562 91.140625 60.417969 93.027344 C 59.613281 94.917969 58.59375 96.683594 57.367188 98.332031 C 56.136719 99.976562 54.730469 101.453125 53.152344 102.765625 C 49.582031 105.683594 45.71875 106.855469 42.800781 105.898438 C 39.175781 104.707031 37.148438 100.226562 37.019531 96.414062 C 36.902344 92.917969 39.1875 87.539062 41.027344 83.214844 C 41.566406 81.941406 42.074219 80.742188 42.5 79.660156 C 42.59375 79.417969 42.660156 79.171875 42.703125 78.914062 C 42.746094 78.660156 42.761719 78.402344 42.75 78.144531 C 42.738281 77.886719 42.699219 77.628906 42.636719 77.378906 C 42.570312 77.128906 42.480469 76.886719 42.367188 76.65625 C 42.25 76.421875 42.113281 76.207031 41.953125 76.003906 C 41.792969 75.800781 41.613281 75.617188 41.414062 75.449219 C 41.214844 75.285156 41 75.140625 40.769531 75.019531 C 40.539062 74.898438 40.300781 74.804688 40.050781 74.734375 C 35.886719 73.554688 31.710938 72.441406 27.53125 71.320312 C 23.390625 70.214844 19.25 69.109375 15.117188 67.9375 C 14.734375 67.828125 14.339844 67.785156 13.9375 67.800781 C 13.539062 67.820312 13.152344 67.902344 12.777344 68.042969 C 12.402344 68.1875 12.058594 68.386719 11.75 68.640625 C 11.441406 68.894531 11.179688 69.191406 10.964844 69.53125 C 1.109375 85.167969 -2.046875 102.261719 2.304688 116.433594 C 3.476562 120.136719 5.113281 123.617188 7.214844 126.882812 C 9.320312 130.144531 11.816406 133.074219 14.703125 135.667969 C -1.367188 183.011719 14.78125 240.355469 53.285156 272.269531 C 53.746094 272.632812 54.265625 272.871094 54.84375 272.984375 C 54.929688 278.289062 55.058594 283.574219 55.195312 288.777344 C 55.671875 306.875 56.164062 325.585938 54.394531 343.78125 C 54.355469 344.160156 54.378906 344.535156 54.457031 344.90625 C 54.535156 345.277344 54.667969 345.628906 54.851562 345.960938 C 55.039062 346.292969 55.269531 346.585938 55.546875 346.847656 C 55.824219 347.109375 56.132812 347.320312 56.476562 347.488281 C 65.496094 351.816406 74.734375 355.613281 84.191406 358.871094 L 79.5 422.804688 C 73.71875 423.292969 68.070312 424.140625 62.917969 425.0625 C 57.605469 426.015625 51.449219 427.453125 46.0625 430.878906 C 40.011719 434.734375 36.039062 440.703125 35.4375 446.855469 C 34.679688 454.652344 39.445312 462.953125 47.304688 467.5 C 54.230469 471.503906 62.234375 472.398438 69.148438 472.742188 C 71.703125 472.871094 74.257812 472.9375 76.808594 472.933594 C 87.992188 472.933594 99.046875 471.722656 109.964844 469.300781 C 113.976562 468.410156 126.1875 465.703125 129.855469 455.917969 C 131.757812 450.839844 130.855469 444.554688 127.441406 439.101562 C 126.710938 437.953125 125.910156 436.851562 125.035156 435.800781 L 130.914062 370.71875 C 147.277344 373.46875 163.753906 374.851562 180.347656 374.867188 C 184.035156 374.867188 187.710938 374.796875 191.378906 374.65625 L 198.058594 436.554688 C 196.546875 437.945312 195.183594 439.472656 193.972656 441.132812 C 190.230469 446.359375 188.949219 452.582031 190.539062 457.769531 C 193.601562 467.757812 205.625 471.207031 209.578125 472.339844 C 222.820312 476.132812 236.332031 478.105469 250.105469 478.257812 C 250.566406 478.261719 251.027344 478.265625 251.496094 478.265625 C 258.09375 478.265625 265.550781 477.6875 272.230469 474.347656 C 280.351562 470.289062 285.617188 462.300781 285.332031 454.464844 C 285.105469 448.289062 281.5 442.089844 275.695312 437.875 C 270.523438 434.125 264.46875 432.316406 259.230469 431.042969 C 254.636719 429.925781 249.632812 428.855469 244.480469 428.035156 L 234.433594 369.554688 C 244.53125 367.511719 254.445312 364.789062 264.171875 361.386719 C 264.828125 361.15625 265.375 360.769531 265.8125 360.234375 C 266.253906 359.695312 266.519531 359.082031 266.617188 358.394531 C 269.996094 333.96875 273.429688 309.070312 274.042969 284.097656 C 287.527344 297.710938 296.65625 308.515625 300.898438 327.15625 C 295.882812 331.839844 291.988281 337.320312 289.21875 343.597656 C 282.664062 358.625 283.566406 376.539062 291.625 391.511719 C 291.949219 392.113281 292.40625 392.585938 292.992188 392.9375 C 293.578125 393.289062 294.210938 393.464844 294.894531 393.464844 C 295.199219 393.464844 295.496094 393.425781 295.792969 393.351562 C 299.746094 392.488281 303.734375 391.832031 307.757812 391.386719 C 312.058594 390.90625 316.324219 390.199219 320.550781 389.261719 C 320.804688 389.199219 321.050781 389.109375 321.285156 388.992188 C 321.523438 388.878906 321.742188 388.738281 321.949219 388.578125 C 322.15625 388.414062 322.34375 388.234375 322.511719 388.03125 C 322.679688 387.828125 322.824219 387.613281 322.945312 387.378906 C 323.066406 387.148438 323.164062 386.90625 323.234375 386.652344 C 323.304688 386.398438 323.347656 386.140625 323.363281 385.878906 C 323.378906 385.617188 323.363281 385.355469 323.324219 385.097656 C 323.285156 384.839844 323.21875 384.585938 323.125 384.339844 C 322.410156 382.414062 321.933594 380.433594 321.691406 378.394531 C 321.449219 376.355469 321.453125 374.316406 321.695312 372.277344 C 321.941406 370.238281 322.421875 368.257812 323.136719 366.332031 C 323.855469 364.40625 324.789062 362.59375 325.9375 360.894531 C 328.488281 357.167969 331.777344 354.972656 334.789062 354.972656 C 334.855469 354.972656 334.921875 354.972656 334.988281 354.972656 C 338.800781 355.097656 342.007812 358.828125 343.199219 362.449219 C 344.296875 365.777344 343.613281 371.589844 343.0625 376.261719 C 342.902344 377.628906 342.75 378.914062 342.648438 380.070312 C 342.625 380.328125 342.628906 380.585938 342.660156 380.839844 C 342.691406 381.097656 342.75 381.351562 342.832031 381.59375 C 342.917969 381.839844 343.023438 382.074219 343.15625 382.296875 C 343.289062 382.519531 343.445312 382.726562 343.621094 382.917969 C 343.796875 383.109375 343.988281 383.277344 344.199219 383.429688 C 344.410156 383.578125 344.636719 383.703125 344.875 383.808594 C 345.113281 383.910156 345.355469 383.988281 345.609375 384.039062 C 345.863281 384.089844 346.121094 384.117188 346.382812 384.113281 C 350.710938 384.074219 355.035156 383.972656 359.355469 383.867188 C 363.644531 383.765625 367.925781 383.664062 372.222656 383.628906 C 372.621094 383.625 373.011719 383.558594 373.390625 383.425781 C 373.769531 383.296875 374.121094 383.109375 374.4375 382.867188 C 374.757812 382.625 375.03125 382.339844 375.257812 382.007812 C 375.480469 381.675781 375.648438 381.316406 375.761719 380.933594 C 380.824219 363.152344 379.050781 345.859375 370.894531 333.480469 Z M 175.863281 51.660156 C 176.203125 51.042969 176.589844 50.460938 177.023438 49.90625 C 177.457031 49.355469 177.933594 48.84375 178.449219 48.371094 C 178.96875 47.894531 179.523438 47.46875 180.109375 47.085938 C 180.699219 46.703125 181.3125 46.371094 181.957031 46.089844 C 182.601562 45.804688 183.261719 45.578125 183.941406 45.40625 C 184.621094 45.230469 185.3125 45.113281 186.011719 45.054688 C 186.710938 44.996094 187.410156 44.992188 188.109375 45.046875 C 188.808594 45.101562 189.5 45.210938 190.183594 45.378906 C 190.855469 45.597656 191.503906 45.863281 192.132812 46.183594 C 192.761719 46.503906 193.363281 46.871094 193.933594 47.285156 C 194.503906 47.703125 195.035156 48.160156 195.535156 48.660156 C 196.03125 49.164062 196.484375 49.699219 196.894531 50.273438 C 197.304688 50.847656 197.667969 51.453125 197.980469 52.082031 C 198.296875 52.714844 198.558594 53.367188 198.765625 54.042969 C 198.976562 54.714844 199.132812 55.402344 199.230469 56.101562 C 199.332031 56.796875 199.375 57.5 199.363281 58.207031 C 199.304688 58.914062 199.1875 59.613281 199.019531 60.304688 C 198.851562 60.996094 198.628906 61.667969 198.351562 62.320312 C 198.074219 62.976562 197.75 63.605469 197.371094 64.207031 C 196.996094 64.8125 196.574219 65.382812 196.109375 65.917969 C 195.640625 66.453125 195.136719 66.949219 194.589844 67.40625 C 194.046875 67.863281 193.46875 68.273438 192.859375 68.636719 C 192.246094 69 191.613281 69.316406 190.953125 69.578125 C 190.292969 69.84375 189.613281 70.050781 188.921875 70.207031 C 183.84375 71.21875 179.386719 69.730469 176.660156 66.148438 C 173.664062 62.191406 173.351562 56.640625 175.863281 51.660156 Z M 9.40625 114.253906 C 5.902344 102.839844 8.246094 88.972656 15.824219 75.851562 C 19.085938 76.753906 22.351562 77.625 25.613281 78.496094 C 28.410156 79.246094 31.210938 79.992188 34 80.757812 C 31.914062 85.675781 29.429688 91.675781 29.597656 96.664062 C 29.8125 103.0625 33.261719 110.582031 40.480469 112.957031 C 45.894531 114.734375 52.222656 113.117188 57.851562 108.515625 C 59.613281 107.054688 61.207031 105.429688 62.632812 103.640625 C 64.058594 101.855469 65.292969 99.9375 66.324219 97.898438 C 67.359375 95.859375 68.175781 93.734375 68.773438 91.527344 C 69.371094 89.316406 69.742188 87.070312 69.878906 84.789062 C 72.472656 85.082031 75.277344 85.515625 78.023438 85.945312 C 81.34375 86.460938 84.753906 86.996094 87.914062 87.292969 C 89.941406 100.71875 86.195312 114.914062 77.832031 124.917969 C 68.589844 135.980469 53.742188 141.851562 39.976562 139.871094 C 25.988281 137.859375 13.417969 127.324219 9.40625 114.253906 Z M 46.410156 147.609375 C 44.855469 153.339844 43.917969 159.167969 43.601562 165.09375 C 34.425781 165.914062 25.378906 165.164062 16.460938 162.839844 C 17.199219 155.238281 18.714844 147.796875 21 140.511719 C 26.492188 144.035156 32.464844 146.273438 38.921875 147.222656 C 41.03125 147.527344 43.148438 147.675781 45.28125 147.675781 C 45.65625 147.675781 46.03125 147.617188 46.410156 147.609375 Z M 16.019531 170.371094 C 22.765625 172.019531 29.613281 172.851562 36.558594 172.867188 C 38.882812 172.867188 41.203125 172.738281 43.511719 172.550781 C 43.765625 180.789062 45.152344 188.832031 47.675781 196.679688 C 45.707031 198.164062 43.628906 199.476562 41.441406 200.617188 C 39.253906 201.757812 36.984375 202.710938 34.640625 203.476562 C 32.296875 204.242188 29.902344 204.808594 27.464844 205.175781 C 25.023438 205.542969 22.570312 205.707031 20.105469 205.667969 C 17.03125 194.097656 15.671875 182.332031 16.019531 170.371094 Z M 54.941406 250.011719 C 54.792969 254.53125 54.757812 259.074219 54.769531 263.613281 C 39.78125 250.097656 28.722656 232.398438 22.328125 213.082031 C 27.34375 212.921875 32.230469 212.058594 36.996094 210.492188 C 41.761719 208.925781 46.210938 206.722656 50.34375 203.875 C 52.320312 208.558594 54.714844 213.019531 57.53125 217.253906 C 57.699219 217.5 57.894531 217.726562 58.113281 217.925781 C 56.308594 228.546875 55.25 239.242188 54.941406 250.007812 Z M 88.476562 164.070312 C 111.640625 135.277344 153.78125 123.191406 188.6875 135.359375 C 231.492188 150.273438 254.777344 194.0625 262.292969 230.074219 C 263.464844 235.703125 264.355469 241.355469 265.035156 247.023438 L 62.671875 243.582031 C 64.660156 209.210938 73.125 183.144531 88.476562 164.066406 Z M 122.898438 453.308594 C 121.382812 457.351562 116.625 460.210938 108.351562 462.046875 C 95.554688 464.886719 82.609375 465.980469 69.515625 465.324219 C 63.492188 465.019531 56.578125 464.28125 51.023438 461.066406 C 46.542969 458.472656 42.269531 453.292969 42.828125 447.574219 C 43.207031 443.679688 45.90625 439.78125 50.050781 437.144531 C 54.347656 434.410156 59.628906 433.195312 64.226562 432.371094 C 83.609375 428.898438 110.59375 426.226562 121.148438 443.042969 C 123.339844 446.546875 123.996094 450.382812 122.898438 453.308594 Z M 119.835938 410.792969 L 118.136719 429.585938 C 109.503906 423.839844 98.273438 422.191406 86.976562 422.414062 L 88.140625 406.589844 Z M 88.6875 399.167969 L 89.933594 382.1875 L 121.953125 387.371094 L 120.503906 403.390625 Z M 122.621094 379.957031 L 90.480469 374.75 L 91.46875 361.269531 C 102.015625 364.59375 112.714844 367.300781 123.574219 369.398438 Z M 257.472656 438.257812 C 262.011719 439.359375 267.207031 440.890625 271.332031 443.886719 C 275.304688 446.769531 277.761719 450.824219 277.90625 454.734375 C 278.117188 460.480469 273.535156 465.386719 268.902344 467.703125 C 263.167969 470.574219 256.207031 470.90625 250.183594 470.828125 C 237.074219 470.683594 224.222656 468.804688 211.621094 465.195312 C 203.476562 462.859375 198.90625 459.714844 197.636719 455.585938 C 196.722656 452.597656 197.609375 448.808594 200.007812 445.453125 C 206.207031 436.792969 216.769531 434.015625 228.183594 434.015625 C 238.070312 434.019531 248.59375 436.101562 257.472656 438.257812 Z M 199.835938 383.808594 L 198.800781 374.226562 C 208.304688 373.617188 217.746094 372.507812 227.128906 370.886719 L 229.097656 382.339844 Z M 230.359375 389.710938 L 233.394531 407.375 L 202.5625 409.074219 L 200.632812 391.203125 Z M 234.664062 414.746094 L 236.777344 427.042969 C 225.535156 425.980469 214.15625 426.734375 204.996094 431.59375 L 203.359375 416.46875 Z M 259.566406 355.117188 C 199.613281 375.5 122.648438 370.34375 62.023438 341.894531 C 63.554688 324.089844 63.078125 306.050781 62.617188 288.582031 C 62.292969 276.242188 61.964844 263.496094 62.347656 251.007812 L 265.804688 254.464844 C 268.679688 287.976562 264.15625 321.980469 259.566406 355.117188 Z M 335.703125 313.863281 C 332.824219 313.703125 329.953125 313.824219 327.097656 314.222656 C 323.542969 314.757812 320.089844 315.683594 316.746094 317 C 313.398438 318.316406 310.242188 319.992188 307.277344 322.023438 C 306.285156 318.3125 305.023438 314.695312 303.492188 311.171875 C 313.265625 305.582031 321.75 298.457031 328.941406 289.792969 C 332.3125 297.503906 334.566406 305.527344 335.707031 313.863281 Z M 274.113281 273.660156 C 274.058594 260.777344 272.960938 247.984375 270.820312 235.277344 C 279.859375 239.078125 288.328125 243.878906 296.226562 249.683594 C 296.136719 249.84375 296.054688 250.007812 295.988281 250.179688 C 293.089844 261.429688 288.390625 271.871094 281.894531 281.5 C 279.425781 278.957031 276.835938 276.367188 274.113281 273.660156 Z M 300.15625 304.53125 C 296.457031 298.207031 292.105469 292.371094 287.097656 287.027344 C 294.019531 277.082031 299.136719 266.28125 302.449219 254.625 C 311.757812 262.496094 319.367188 271.761719 325.28125 282.421875 C 321.863281 286.894531 318.039062 290.992188 313.808594 294.714844 C 309.582031 298.433594 305.03125 301.707031 300.15625 304.53125 Z M 369.320312 376.230469 C 365.9375 376.28125 362.558594 376.359375 359.179688 376.441406 C 356.289062 376.507812 353.394531 376.578125 350.5 376.625 C 351.121094 371.320312 351.816406 364.863281 350.253906 360.125 C 348.25 354.042969 342.828125 347.796875 335.230469 347.546875 C 329.53125 347.351562 323.917969 350.695312 319.808594 356.6875 C 318.53125 358.585938 317.457031 360.59375 316.589844 362.710938 C 315.722656 364.828125 315.078125 367.007812 314.660156 369.257812 C 314.242188 371.507812 314.054688 373.777344 314.101562 376.0625 C 314.148438 378.351562 314.425781 380.609375 314.933594 382.839844 C 312.363281 383.289062 309.550781 383.65625 306.792969 384.019531 C 303.460938 384.453125 300.039062 384.902344 296.921875 385.503906 C 291.203125 373.1875 290.8125 358.511719 296.03125 346.5625 C 301.789062 333.347656 314.398438 323.539062 328.152344 321.574219 C 329.828125 321.335938 331.511719 321.21875 333.207031 321.21875 C 345.632812 321.21875 358.070312 327.519531 364.695312 337.574219 C 371.265625 347.539062 372.910156 361.507812 369.320312 376.230469 Z M 369.320312 376.230469 " fill-opacity="1" fill-rule="nonzero"/></g></svg>