<svg xmlns="http://www.w3.org/2000/svg" xmlns:xlink="http://www.w3.org/1999/xlink" width="500" zoomAndPan="magnify" viewBox="0 0 375 374.999991" height="500" preserveAspectRatio="xMidYMid meet" version="1.0"><defs><clipPath id="5ed62d317c"><path d="M 183 6.328125 L 192 6.328125 L 192 46 L 183 46 Z M 183 6.328125 " clip-rule="nonzero"/></clipPath><clipPath id="0dd4d9460d"><path d="M 0 55 L 375 55 L 375 368.578125 L 0 368.578125 Z M 0 55 " clip-rule="nonzero"/></clipPath></defs><g clip-path="url(#5ed62d317c)"><path fill="#30792a" d="M 187.503906 45.664062 C 189.800781 45.664062 191.660156 43.804688 191.660156 41.507812 L 191.660156 10.5 C 191.660156 8.199219 189.800781 6.339844 187.503906 6.339844 C 185.199219 6.339844 183.34375 8.199219 183.34375 10.5 L 183.34375 41.507812 C 183.34375 43.804688 185.199219 45.664062 187.503906 45.664062 " fill-opacity="1" fill-rule="nonzero"/></g><path fill="#30792a" d="M 139.628906 53.664062 C 140.4375 54.800781 141.71875 55.40625 143.019531 55.40625 C 143.855469 55.40625 144.699219 55.15625 145.433594 54.632812 C 147.300781 53.300781 147.738281 50.703125 146.40625 48.828125 L 128.402344 23.585938 C 127.066406 21.714844 124.476562 21.277344 122.597656 22.613281 C 120.726562 23.949219 120.292969 26.546875 121.625 28.417969 L 139.628906 53.664062 " fill-opacity="1" fill-rule="nonzero"/><path fill="#30792a" d="M 87.398438 76.167969 L 115.097656 90.101562 C 115.703125 90.402344 116.339844 90.542969 116.964844 90.542969 C 118.488281 90.542969 119.957031 89.703125 120.6875 88.253906 C 121.71875 86.199219 120.890625 83.699219 118.835938 82.664062 L 91.136719 68.734375 C 89.074219 67.699219 86.582031 68.53125 85.550781 70.582031 C 84.519531 72.632812 85.347656 75.136719 87.398438 76.167969 " fill-opacity="1" fill-rule="nonzero"/><path fill="#30792a" d="M 229.570312 54.632812 C 230.304688 55.15625 231.144531 55.40625 231.984375 55.40625 C 233.285156 55.40625 234.5625 54.800781 235.378906 53.664062 L 253.378906 28.417969 C 254.710938 26.546875 254.273438 23.949219 252.40625 22.613281 C 250.535156 21.28125 247.9375 21.71875 246.601562 23.585938 L 228.597656 48.828125 C 227.269531 50.703125 227.703125 53.300781 229.570312 54.632812 " fill-opacity="1" fill-rule="nonzero"/><path fill="#30792a" d="M 254.316406 88.253906 C 255.046875 89.703125 256.515625 90.542969 258.039062 90.542969 C 258.664062 90.542969 259.308594 90.402344 259.902344 90.101562 L 287.605469 76.167969 C 289.65625 75.136719 290.484375 72.632812 289.453125 70.582031 C 288.421875 68.539062 285.917969 67.703125 283.867188 68.734375 L 256.167969 82.664062 C 254.117188 83.699219 253.285156 86.199219 254.316406 88.253906 " fill-opacity="1" fill-rule="nonzero"/><path fill="#30792a" d="M 71.839844 209.890625 C 72.328125 209.71875 120.863281 193.871094 154.546875 219.277344 C 155.300781 219.84375 156.175781 220.117188 157.050781 220.117188 C 158.316406 220.117188 159.558594 219.546875 160.378906 218.460938 C 161.761719 216.625 161.394531 214.019531 159.558594 212.632812 C 122.320312 184.550781 71.335938 201.28125 69.1875 202.003906 C 67.007812 202.738281 65.839844 205.09375 66.574219 207.273438 C 67.304688 209.449219 69.664062 210.625 71.839844 209.890625 " fill-opacity="1" fill-rule="nonzero"/><path fill="#30792a" d="M 154.546875 269.222656 C 155.300781 269.789062 156.183594 270.0625 157.050781 270.0625 C 158.316406 270.0625 159.558594 269.488281 160.378906 268.40625 C 161.761719 266.570312 161.394531 263.960938 159.558594 262.578125 C 122.320312 234.5 71.335938 251.226562 69.1875 251.949219 C 67.007812 252.6875 65.839844 255.042969 66.574219 257.21875 C 67.304688 259.394531 69.664062 260.582031 71.839844 259.839844 C 72.328125 259.671875 120.863281 243.816406 154.546875 269.222656 " fill-opacity="1" fill-rule="nonzero"/><path fill="#30792a" d="M 214.625 218.460938 C 215.445312 219.546875 216.6875 220.117188 217.953125 220.117188 C 218.824219 220.117188 219.707031 219.84375 220.457031 219.277344 C 254.140625 193.871094 302.671875 209.726562 303.160156 209.890625 C 305.347656 210.628906 307.695312 209.449219 308.425781 207.273438 C 309.160156 205.09375 307.992188 202.738281 305.8125 202.003906 C 303.664062 201.28125 252.683594 184.546875 215.441406 212.632812 C 213.609375 214.019531 213.246094 216.625 214.625 218.460938 " fill-opacity="1" fill-rule="nonzero"/><path fill="#30792a" d="M 305.8125 251.949219 C 303.660156 251.226562 252.675781 234.5 215.441406 262.578125 C 213.609375 263.960938 213.246094 266.570312 214.625 268.40625 C 215.445312 269.488281 216.6875 270.0625 217.953125 270.0625 C 218.824219 270.0625 219.707031 269.789062 220.457031 269.222656 C 254.140625 243.820312 302.671875 259.671875 303.160156 259.839844 C 305.347656 260.582031 307.695312 259.398438 308.425781 257.21875 C 309.160156 255.042969 307.992188 252.6875 305.8125 251.949219 " fill-opacity="1" fill-rule="nonzero"/><g clip-path="url(#0dd4d9460d)"><path fill="#30792a" d="M 366.59375 344.578125 C 341.550781 334.84375 244.46875 302.160156 199.144531 360.339844 L 175.855469 360.339844 C 130.542969 302.164062 33.449219 334.84375 8.40625 344.578125 L 8.40625 147.808594 C 11.789062 145.828125 19.628906 141.847656 28.679688 141.386719 L 28.679688 315.636719 C 28.679688 316.960938 29.308594 318.207031 30.378906 318.992188 C 31.445312 319.773438 32.828125 320.011719 34.089844 319.605469 C 35.105469 319.285156 136.597656 288.117188 184.40625 341.378906 C 184.417969 341.390625 184.429688 341.402344 184.445312 341.414062 C 184.46875 341.441406 184.492188 341.460938 184.515625 341.488281 C 184.628906 341.601562 184.746094 341.710938 184.867188 341.8125 C 184.902344 341.835938 184.933594 341.863281 184.964844 341.890625 C 185.277344 342.128906 185.609375 342.320312 185.960938 342.457031 C 185.980469 342.46875 185.996094 342.476562 186.015625 342.484375 C 186.03125 342.492188 186.050781 342.492188 186.070312 342.5 C 186.285156 342.578125 186.503906 342.640625 186.71875 342.683594 C 186.753906 342.6875 186.78125 342.691406 186.816406 342.695312 C 187.039062 342.734375 187.273438 342.757812 187.503906 342.757812 C 187.726562 342.757812 187.945312 342.734375 188.167969 342.699219 C 188.207031 342.691406 188.246094 342.6875 188.285156 342.679688 C 188.496094 342.640625 188.699219 342.585938 188.898438 342.511719 C 188.945312 342.496094 188.988281 342.480469 189.03125 342.460938 C 189.234375 342.382812 189.429688 342.289062 189.621094 342.175781 C 189.644531 342.160156 189.675781 342.140625 189.703125 342.121094 C 190.027344 341.917969 190.335938 341.671875 190.597656 341.378906 C 238.414062 288.117188 339.898438 319.285156 340.910156 319.605469 C 342.179688 320.011719 343.558594 319.773438 344.621094 318.992188 C 345.691406 318.207031 346.320312 316.960938 346.320312 315.636719 L 346.320312 141.234375 C 354.785156 140.941406 362.265625 141.0625 366.59375 141.191406 Z M 37 123.125 C 49.257812 119.75 97.949219 107.90625 140.234375 119.558594 C 142.257812 126.109375 145.632812 132.21875 150.207031 137.457031 C 155.453125 143.46875 158.339844 151.539062 158.347656 160.179688 L 158.355469 173.570312 C 158.355469 175.867188 160.21875 177.730469 162.515625 177.730469 L 212.488281 177.730469 C 214.789062 177.730469 216.648438 175.867188 216.648438 173.566406 L 216.648438 159.484375 C 216.648438 151.492188 219.71875 143.46875 225.285156 136.898438 C 225.285156 136.898438 225.285156 136.898438 225.289062 136.894531 C 229.667969 131.722656 232.871094 125.839844 234.808594 119.546875 C 277.085938 107.910156 325.746094 119.75 338 123.125 L 338 310.113281 C 316.597656 304.363281 238.355469 287.183594 191.660156 328.601562 L 191.660156 196.902344 L 211.929688 196.902344 C 214.234375 196.902344 216.09375 195.039062 216.09375 192.742188 C 216.09375 190.445312 214.234375 188.582031 211.929688 188.582031 L 163.074219 188.582031 C 160.773438 188.582031 158.910156 190.445312 158.910156 192.742188 C 158.910156 195.039062 160.773438 196.902344 163.074219 196.902344 L 183.34375 196.902344 L 183.34375 328.617188 C 136.652344 287.191406 58.40625 304.359375 37 310.113281 Z M 160.070312 74.230469 C 168.921875 66.316406 180.347656 62.699219 192.269531 64.023438 C 211.332031 66.160156 226.554688 81.578125 228.457031 100.691406 C 228.941406 105.542969 228.589844 110.324219 227.457031 114.886719 C 227.398438 115.0625 227.351562 115.25 227.316406 115.433594 C 225.78125 121.289062 222.957031 126.769531 218.933594 131.515625 C 212.09375 139.589844 208.328125 149.523438 208.328125 159.484375 L 208.328125 169.40625 L 166.671875 169.40625 L 166.671875 160.171875 C 166.664062 149.523438 163.042969 139.511719 156.476562 131.984375 C 152.269531 127.171875 149.289062 121.476562 147.6875 115.371094 C 147.664062 115.257812 147.632812 115.140625 147.601562 115.027344 C 146.773438 111.75 146.335938 108.359375 146.335938 104.929688 C 146.335938 93.226562 151.34375 82.039062 160.070312 74.230469 Z M 370.972656 133.03125 C 370.492188 133.003906 359.789062 132.460938 346.320312 132.90625 L 346.320312 119.996094 C 346.320312 118.179688 345.144531 116.578125 343.414062 116.027344 C 341.023438 115.277344 286.546875 98.417969 236.679688 110.472656 C 237.066406 106.996094 237.09375 103.445312 236.738281 99.867188 C 234.449219 76.875 216.136719 58.324219 193.195312 55.757812 C 179.097656 54.160156 165.003906 58.648438 154.523438 68.027344 C 144.03125 77.414062 138.011719 90.859375 138.011719 104.929688 C 138.011719 106.792969 138.128906 108.644531 138.335938 110.476562 C 88.46875 98.421875 33.972656 115.273438 31.585938 116.027344 C 29.855469 116.578125 28.679688 118.179688 28.679688 119.996094 L 28.679688 133.03125 C 13.984375 133.589844 2.371094 141.738281 1.847656 142.109375 C 0.742188 142.886719 0.0820312 144.15625 0.0820312 145.507812 L 0.0820312 350.765625 C 0.0820312 352.167969 0.789062 353.476562 1.964844 354.246094 C 3.136719 355.019531 4.625 355.140625 5.902344 354.578125 C 7.082031 354.066406 123.925781 304.09375 170.445312 366.976562 C 171.230469 368.035156 172.464844 368.660156 173.785156 368.660156 L 201.214844 368.660156 C 202.535156 368.660156 203.769531 368.035156 204.554688 366.976562 C 251.074219 304.097656 367.914062 354.066406 369.097656 354.578125 C 370.378906 355.136719 371.863281 355.015625 373.035156 354.246094 C 374.210938 353.476562 374.917969 352.167969 374.917969 350.765625 L 374.917969 137.183594 C 374.917969 134.972656 373.183594 133.148438 370.972656 133.03125 " fill-opacity="1" fill-rule="nonzero"/></g></svg>