<svg xmlns="http://www.w3.org/2000/svg" xmlns:xlink="http://www.w3.org/1999/xlink" width="500" zoomAndPan="magnify" viewBox="0 0 375 374.999991" height="500" preserveAspectRatio="xMidYMid meet" version="1.0"><path fill="#30792a" d="M 319.179688 293.445312 C 318.914062 293.289062 318.632812 293.144531 318.339844 293.03125 C 316.964844 292.507812 315.523438 292.554688 314.253906 293.046875 L 286.507812 233.027344 C 287.660156 232.40625 288.605469 231.386719 289.109375 230.0625 C 289.378906 229.363281 289.496094 228.636719 289.480469 227.929688 L 362.761719 221.964844 C 362.972656 223.410156 363.738281 224.742188 364.914062 225.652344 Z M 91.019531 308.050781 C 90.589844 306.988281 89.851562 306.050781 88.851562 305.398438 L 136.566406 221.269531 C 136.714844 221.34375 136.863281 221.410156 137.019531 221.472656 C 139.566406 222.445312 142.382812 221.460938 143.8125 219.261719 L 219.773438 262.128906 C 219.707031 262.273438 219.640625 262.417969 219.582031 262.570312 C 219.140625 263.71875 219.105469 264.917969 219.390625 266.027344 Z M 25.820312 146.730469 C 27.21875 146.96875 28.625 146.664062 29.785156 145.941406 L 67.960938 199.214844 C 67.21875 199.820312 66.613281 200.621094 66.246094 201.582031 C 65.789062 202.78125 65.769531 204.03125 66.09375 205.175781 L 11.835938 224.453125 C 11.253906 223.085938 10.140625 221.953125 8.644531 221.378906 C 8.519531 221.332031 8.390625 221.292969 8.261719 221.257812 Z M 100.308594 82.820312 C 100.890625 83.460938 101.621094 83.980469 102.480469 84.3125 C 103.285156 84.617188 104.117188 84.722656 104.917969 84.667969 L 112.027344 137.035156 C 110.183594 137.40625 108.558594 138.679688 107.839844 140.566406 C 107.636719 141.085938 107.523438 141.617188 107.480469 142.144531 L 32.449219 140.867188 C 32.398438 139.785156 32.042969 138.746094 31.425781 137.871094 Z M 241.976562 65.683594 C 242.050781 66.117188 242.171875 66.539062 242.335938 66.941406 L 179.230469 97.878906 C 178.601562 96.777344 177.601562 95.878906 176.324219 95.390625 C 173.394531 94.269531 170.109375 95.734375 168.988281 98.664062 C 168.988281 98.667969 168.988281 98.667969 168.988281 98.671875 L 110.027344 80.34375 C 110.15625 79.828125 110.210938 79.308594 110.191406 78.796875 Z M 226.917969 259.296875 C 225.511719 258.757812 224.027344 258.820312 222.738281 259.347656 L 201.042969 214.59375 C 202.15625 213.964844 203.066406 212.960938 203.558594 211.675781 C 203.617188 211.515625 203.671875 211.351562 203.714844 211.1875 L 278.183594 227.191406 C 278 228.421875 278.230469 229.65625 278.800781 230.71875 L 229.515625 261.308594 C 228.890625 260.425781 228.003906 259.710938 226.917969 259.296875 Z M 144.355469 218.191406 C 144.644531 217.4375 144.761719 216.660156 144.726562 215.894531 L 192.65625 210.621094 C 192.992188 212.523438 194.28125 214.214844 196.21875 214.957031 C 197.621094 215.492188 199.105469 215.429688 200.398438 214.902344 L 222.089844 259.65625 C 221.3125 260.09375 220.632812 260.722656 220.125 261.503906 L 144.160156 218.636719 C 144.230469 218.488281 144.296875 218.34375 144.355469 218.191406 Z M 87.777344 304.847656 C 86.976562 304.542969 86.152344 304.433594 85.351562 304.492188 L 72.65625 209.179688 C 74.511719 208.816406 76.140625 207.539062 76.859375 205.644531 C 76.945312 205.433594 77.007812 205.21875 77.0625 205.003906 L 133.414062 215.476562 C 133.15625 217.613281 134.132812 219.738281 135.941406 220.917969 L 88.230469 305.046875 C 88.082031 304.972656 87.933594 304.90625 87.777344 304.847656 Z M 245.550781 70.074219 C 245.695312 70.128906 245.839844 70.175781 245.988281 70.21875 L 227.40625 152.660156 C 225.804688 152.402344 224.195312 152.855469 222.96875 153.835938 L 178.371094 104.65625 C 178.890625 104.121094 179.320312 103.472656 179.601562 102.726562 C 180.144531 101.3125 180.074219 99.816406 179.539062 98.523438 L 242.648438 67.582031 C 243.273438 68.6875 244.273438 69.585938 245.550781 70.074219 Z M 356.355469 116.792969 L 306.179688 146.886719 C 305.550781 145.96875 304.648438 145.226562 303.53125 144.800781 C 301.914062 144.183594 300.1875 144.355469 298.777344 145.125 L 250.910156 69.371094 C 251.625 68.851562 252.222656 68.171875 252.640625 67.351562 L 356.058594 112.257812 C 355.503906 113.804688 355.65625 115.433594 356.355469 116.792969 Z M 280.480469 223.425781 L 230.382812 162.421875 C 230.992188 161.847656 231.5 161.136719 231.816406 160.300781 C 232.101562 159.546875 232.21875 158.769531 232.183594 158.011719 L 295.910156 151.074219 C 296.242188 152.984375 297.535156 154.671875 299.472656 155.414062 C 299.613281 155.46875 299.753906 155.511719 299.898438 155.550781 L 284.710938 222.421875 C 283.199219 222.179688 281.683594 222.5625 280.480469 223.425781 Z M 201.296875 204.851562 L 224.09375 163.40625 C 224.21875 163.464844 224.347656 163.527344 224.480469 163.578125 C 226.335938 164.289062 228.328125 163.957031 229.828125 162.878906 L 279.929688 223.882812 C 279.316406 224.457031 278.816406 225.167969 278.496094 226.003906 C 278.433594 226.164062 278.382812 226.328125 278.335938 226.492188 L 203.867188 210.488281 C 204.199219 208.273438 203.191406 206.054688 201.296875 204.851562 Z M 141.082031 210.851562 C 139.890625 210.398438 138.644531 210.378906 137.507812 210.699219 L 115.363281 147.828125 C 116.734375 147.242188 117.878906 146.128906 118.453125 144.628906 C 118.566406 144.332031 118.644531 144.03125 118.707031 143.730469 L 220.84375 157.847656 C 220.691406 159.917969 221.6875 161.941406 223.460938 163.066406 L 200.664062 204.511719 C 200.539062 204.453125 200.410156 204.390625 200.277344 204.339844 C 197.347656 203.21875 194.0625 204.6875 192.9375 207.617188 C 192.652344 208.375 192.535156 209.152344 192.574219 209.914062 L 144.640625 215.1875 C 144.308594 213.285156 143.015625 211.597656 141.082031 210.851562 Z M 250.308594 69.75 L 298.171875 145.507812 C 297.304688 146.132812 296.605469 147.007812 296.195312 148.074219 C 295.90625 148.832031 295.792969 149.609375 295.828125 150.363281 L 232.101562 157.300781 C 231.769531 155.394531 230.476562 153.707031 228.539062 152.960938 C 228.394531 152.90625 228.25 152.863281 228.101562 152.820312 L 246.683594 70.378906 C 247.953125 70.582031 249.222656 70.34375 250.308594 69.75 Z M 172.265625 106.003906 C 174.210938 106.746094 176.3125 106.34375 177.835938 105.132812 L 222.433594 154.3125 C 221.910156 154.847656 221.484375 155.496094 221.203125 156.242188 C 221.085938 156.539062 221.007812 156.835938 220.945312 157.140625 L 118.808594 143.019531 C 118.898438 141.84375 118.613281 140.679688 118.023438 139.691406 L 169.824219 104.195312 C 170.4375 104.980469 171.265625 105.621094 172.265625 106.003906 Z M 75.042969 199.128906 L 110.25 147.480469 C 110.519531 147.644531 110.808594 147.789062 111.113281 147.90625 C 112.304688 148.359375 113.550781 148.382812 114.6875 148.058594 L 136.832031 210.9375 C 135.460938 211.515625 134.316406 212.628906 133.742188 214.132812 C 133.660156 214.34375 133.597656 214.558594 133.542969 214.773438 L 77.191406 204.296875 C 77.433594 202.316406 76.609375 200.347656 75.042969 199.128906 Z M 305.648438 153.992188 C 306.136719 153.46875 306.539062 152.847656 306.808594 152.136719 C 307.414062 150.566406 307.261719 148.890625 306.542969 147.5 L 356.722656 117.410156 C 357.347656 118.324219 358.253906 119.066406 359.371094 119.496094 C 360.042969 119.753906 360.734375 119.867188 361.410156 119.867188 L 367.65625 215.511719 C 366.59375 215.652344 365.585938 216.09375 364.757812 216.777344 Z M 109.820312 81.03125 C 109.820312 81.03125 109.820312 81.027344 109.820312 81.027344 L 168.777344 99.355469 C 168.414062 100.839844 168.675781 102.355469 169.417969 103.605469 L 117.617188 139.101562 C 117.003906 138.316406 116.175781 137.675781 115.171875 137.292969 C 114.371094 136.984375 113.542969 136.875 112.738281 136.933594 L 105.628906 84.570312 C 107.476562 84.195312 109.097656 82.921875 109.820312 81.03125 Z M 32.082031 143.160156 C 32.277344 142.640625 32.394531 142.109375 32.4375 141.585938 L 107.46875 142.859375 C 107.546875 144.507812 108.339844 146.058594 109.65625 147.082031 L 74.453125 198.730469 C 74.179688 198.566406 73.890625 198.421875 73.585938 198.304688 C 71.855469 197.640625 70.003906 197.890625 68.546875 198.800781 L 30.363281 145.527344 C 31.109375 144.917969 31.714844 144.121094 32.082031 143.160156 Z M 11.921875 228.71875 C 12.378906 227.523438 12.402344 226.269531 12.074219 225.128906 L 66.332031 205.847656 C 66.917969 207.210938 68.027344 208.347656 69.523438 208.921875 C 70.324219 209.226562 71.148438 209.335938 71.945312 209.277344 L 84.640625 304.585938 C 83.710938 304.773438 82.839844 305.1875 82.105469 305.792969 L 10.777344 230.554688 C 11.257812 230.035156 11.65625 229.421875 11.921875 228.71875 Z M 311.117188 296.042969 L 230.328125 266.226562 C 230.769531 264.742188 230.578125 263.203125 229.890625 261.917969 L 279.175781 231.328125 C 279.800781 232.210938 280.6875 232.925781 281.773438 233.339844 C 283.140625 233.863281 284.589844 233.820312 285.855469 233.328125 L 313.601562 293.34375 C 312.53125 293.921875 311.640625 294.851562 311.117188 296.042969 Z M 289.425781 227.21875 C 289.136719 225.246094 287.824219 223.488281 285.835938 222.726562 C 285.691406 222.671875 285.550781 222.628906 285.40625 222.585938 L 300.59375 155.71875 C 302.234375 155.984375 303.886719 155.507812 305.128906 154.480469 L 364.234375 217.265625 C 363.746094 217.789062 363.347656 218.410156 363.078125 219.121094 C 362.808594 219.820312 362.695312 220.542969 362.707031 221.253906 Z M 370.414062 215.839844 C 369.738281 215.582031 369.050781 215.46875 368.371094 215.472656 L 362.128906 119.824219 C 364.132812 119.5625 365.9375 118.238281 366.707031 116.214844 C 367.828125 113.289062 366.363281 110.003906 363.429688 108.878906 C 360.691406 107.832031 357.644531 109.046875 356.339844 111.601562 L 252.921875 66.695312 C 253.972656 63.792969 252.507812 60.566406 249.609375 59.457031 C 246.683594 58.335938 243.398438 59.804688 242.273438 62.738281 C 241.992188 63.472656 241.871094 64.230469 241.902344 64.972656 L 110.117188 78.085938 C 109.796875 76.15625 108.5 74.441406 106.542969 73.695312 C 103.609375 72.574219 100.324219 74.039062 99.207031 76.972656 C 98.503906 78.804688 98.8125 80.769531 99.855469 82.265625 L 30.976562 137.3125 C 30.398438 136.671875 29.667969 136.152344 28.804688 135.824219 C 25.871094 134.699219 22.585938 136.167969 21.46875 139.097656 C 20.347656 142.03125 21.8125 145.316406 24.742188 146.4375 C 24.871094 146.488281 25 146.523438 25.128906 146.558594 L 7.566406 221.082031 C 4.949219 220.636719 2.292969 222.082031 1.308594 224.65625 C 0.1875 227.589844 1.65625 230.875 4.585938 231.992188 C 6.574219 232.753906 8.730469 232.320312 10.257812 231.046875 L 81.585938 306.285156 C 81.101562 306.804688 80.707031 307.421875 80.4375 308.125 C 79.316406 311.054688 80.785156 314.339844 83.71875 315.464844 C 86.644531 316.585938 89.929688 315.117188 91.050781 312.183594 C 91.492188 311.039062 91.527344 309.835938 91.242188 308.730469 L 219.613281 266.703125 C 220.183594 268.128906 221.3125 269.320312 222.855469 269.910156 C 225.695312 270.996094 228.863281 269.648438 230.074219 266.898438 L 310.867188 296.714844 C 310.019531 299.539062 311.480469 302.578125 314.277344 303.648438 C 317.207031 304.769531 320.492188 303.300781 321.613281 300.367188 C 322.535156 297.96875 321.714844 295.332031 319.773438 293.839844 L 365.511719 226.046875 C 365.777344 226.199219 366.054688 226.34375 366.355469 226.457031 C 369.285156 227.578125 372.570312 226.113281 373.691406 223.179688 C 374.8125 220.246094 373.34375 216.960938 370.414062 215.839844 " fill-opacity="1" fill-rule="nonzero"/></svg>