<svg xmlns="http://www.w3.org/2000/svg" xmlns:xlink="http://www.w3.org/1999/xlink" width="500" zoomAndPan="magnify" viewBox="0 0 375 374.999991" height="500" preserveAspectRatio="xMidYMid meet" version="1.0"><path fill="#30792a" d="M 369.503906 331.113281 L 340.648438 148.429688 C 340.480469 147.320312 340.257812 146.222656 339.992188 145.136719 C 339.722656 144.046875 339.410156 142.972656 339.046875 141.914062 C 338.683594 140.851562 338.273438 139.8125 337.816406 138.789062 C 337.359375 137.761719 336.859375 136.761719 336.316406 135.78125 C 335.769531 134.804688 335.183594 133.851562 334.550781 132.925781 C 333.921875 131.996094 333.253906 131.101562 332.542969 130.234375 C 331.832031 129.367188 331.085938 128.53125 330.300781 127.730469 C 329.519531 126.929688 328.699219 126.164062 327.847656 125.4375 C 326.996094 124.710938 326.113281 124.019531 325.199219 123.371094 C 324.285156 122.722656 323.347656 122.113281 322.378906 121.550781 C 321.414062 120.984375 320.421875 120.460938 319.40625 119.984375 C 318.394531 119.507812 317.363281 119.074219 316.308594 118.6875 C 315.257812 118.300781 314.191406 117.964844 313.109375 117.671875 C 312.027344 117.382812 310.933594 117.140625 309.828125 116.945312 C 308.726562 116.753906 307.613281 116.609375 306.5 116.515625 C 305.382812 116.417969 304.261719 116.375 303.140625 116.378906 L 252.476562 116.378906 L 252.476562 77.585938 L 329.179688 77.585938 C 330.027344 77.589844 330.871094 77.53125 331.714844 77.417969 C 332.554688 77.300781 333.382812 77.128906 334.199219 76.898438 C 335.015625 76.667969 335.8125 76.378906 336.589844 76.039062 C 337.367188 75.695312 338.117188 75.300781 338.839844 74.855469 C 339.5625 74.410156 340.25 73.914062 340.902344 73.375 C 341.554688 72.832031 342.167969 72.246094 342.738281 71.617188 C 343.3125 70.992188 343.835938 70.328125 344.316406 69.625 C 344.796875 68.925781 345.222656 68.195312 345.601562 67.433594 L 366.03125 26.574219 C 366.207031 26.226562 366.367188 25.871094 366.519531 25.511719 C 366.671875 25.15625 366.8125 24.792969 366.941406 24.425781 C 367.066406 24.058594 367.183594 23.6875 367.289062 23.3125 C 367.394531 22.9375 367.488281 22.558594 367.566406 22.179688 C 367.648438 21.796875 367.714844 21.414062 367.773438 21.027344 C 367.828125 20.644531 367.875 20.257812 367.90625 19.871094 C 367.9375 19.480469 367.957031 19.09375 367.964844 18.703125 C 367.96875 18.316406 367.964844 17.925781 367.949219 17.539062 C 367.929688 17.148438 367.898438 16.761719 367.859375 16.375 C 367.816406 15.988281 367.761719 15.601562 367.695312 15.21875 C 367.628906 14.835938 367.550781 14.453125 367.457031 14.074219 C 367.367188 13.699219 367.265625 13.324219 367.148438 12.949219 C 367.035156 12.578125 366.90625 12.210938 366.769531 11.847656 C 366.632812 11.484375 366.480469 11.125 366.320312 10.769531 C 366.160156 10.414062 365.988281 10.066406 365.804688 9.722656 C 365.621094 9.378906 365.429688 9.042969 365.222656 8.710938 C 365.019531 8.382812 364.804688 8.058594 364.578125 7.738281 C 364.355469 7.421875 364.117188 7.113281 363.875 6.808594 C 363.628906 6.507812 363.375 6.210938 363.109375 5.925781 C 362.847656 5.640625 362.574219 5.363281 362.292969 5.09375 C 362.011719 4.824219 361.722656 4.566406 361.425781 4.3125 C 361.128906 4.0625 360.820312 3.824219 360.507812 3.589844 C 360.195312 3.359375 359.875 3.140625 359.546875 2.929688 C 359.222656 2.71875 358.886719 2.519531 358.546875 2.328125 C 358.207031 2.136719 357.863281 1.960938 357.511719 1.792969 C 357.160156 1.625 356.804688 1.46875 356.441406 1.324219 C 356.082031 1.179688 355.714844 1.042969 355.347656 0.921875 C 354.976562 0.800781 354.605469 0.691406 354.226562 0.59375 C 353.851562 0.496094 353.472656 0.410156 353.089844 0.335938 C 352.707031 0.261719 352.324219 0.199219 351.9375 0.148438 C 351.550781 0.101562 351.164062 0.0625 350.777344 0.0390625 C 350.386719 0.0117188 350 0 349.609375 0 L 26.035156 0 C 25.648438 0 25.257812 0.0117188 24.871094 0.0390625 C 24.480469 0.0625 24.09375 0.101562 23.707031 0.148438 C 23.324219 0.199219 22.9375 0.261719 22.558594 0.335938 C 22.175781 0.410156 21.796875 0.496094 21.417969 0.59375 C 21.042969 0.691406 20.667969 0.800781 20.300781 0.921875 C 19.929688 1.042969 19.566406 1.179688 19.203125 1.324219 C 18.84375 1.46875 18.484375 1.625 18.136719 1.792969 C 17.785156 1.960938 17.4375 2.136719 17.097656 2.328125 C 16.757812 2.519531 16.425781 2.71875 16.097656 2.929688 C 15.769531 3.140625 15.449219 3.359375 15.136719 3.589844 C 14.824219 3.824219 14.519531 4.0625 14.222656 4.3125 C 13.921875 4.566406 13.632812 4.824219 13.351562 5.09375 C 13.070312 5.363281 12.800781 5.640625 12.535156 5.925781 C 12.273438 6.210938 12.019531 6.507812 11.773438 6.808594 C 11.527344 7.113281 11.292969 7.421875 11.066406 7.738281 C 10.84375 8.058594 10.628906 8.382812 10.421875 8.710938 C 10.21875 9.042969 10.023438 9.378906 9.839844 9.722656 C 9.660156 10.066406 9.484375 10.414062 9.324219 10.769531 C 9.164062 11.125 9.015625 11.484375 8.875 11.847656 C 8.738281 12.210938 8.613281 12.578125 8.496094 12.949219 C 8.382812 13.324219 8.28125 13.699219 8.1875 14.074219 C 8.097656 14.453125 8.019531 14.835938 7.953125 15.21875 C 7.886719 15.601562 7.832031 15.988281 7.789062 16.375 C 7.746094 16.761719 7.714844 17.148438 7.699219 17.539062 C 7.679688 17.925781 7.675781 18.316406 7.683594 18.703125 C 7.691406 19.09375 7.710938 19.480469 7.742188 19.871094 C 7.773438 20.257812 7.816406 20.644531 7.875 21.027344 C 7.929688 21.414062 8 21.796875 8.078125 22.179688 C 8.160156 22.558594 8.253906 22.9375 8.355469 23.3125 C 8.460938 23.6875 8.578125 24.058594 8.707031 24.425781 C 8.835938 24.792969 8.976562 25.15625 9.125 25.511719 C 9.277344 25.871094 9.441406 26.226562 9.613281 26.574219 L 30.066406 67.433594 C 30.441406 68.195312 30.871094 68.925781 31.347656 69.625 C 31.828125 70.324219 32.351562 70.988281 32.921875 71.617188 C 33.492188 72.242188 34.105469 72.828125 34.757812 73.367188 C 35.410156 73.910156 36.097656 74.40625 36.816406 74.851562 C 37.539062 75.296875 38.289062 75.691406 39.0625 76.035156 C 39.839844 76.375 40.636719 76.660156 41.453125 76.894531 C 42.265625 77.125 43.09375 77.296875 43.933594 77.414062 C 44.777344 77.53125 45.621094 77.585938 46.46875 77.585938 L 123.167969 77.585938 L 123.167969 116.378906 L 72.503906 116.378906 C 71.382812 116.375 70.265625 116.421875 69.148438 116.515625 C 68.03125 116.609375 66.921875 116.753906 65.820312 116.949219 C 64.714844 117.140625 63.621094 117.382812 62.539062 117.675781 C 61.457031 117.964844 60.390625 118.304688 59.339844 118.691406 C 58.289062 119.074219 57.253906 119.507812 56.242188 119.984375 C 55.226562 120.464844 54.238281 120.984375 53.269531 121.550781 C 52.304688 122.117188 51.363281 122.722656 50.449219 123.375 C 49.535156 124.023438 48.652344 124.710938 47.800781 125.441406 C 46.949219 126.167969 46.132812 126.933594 45.347656 127.734375 C 44.566406 128.535156 43.820312 129.367188 43.109375 130.234375 C 42.398438 131.101562 41.730469 132 41.101562 132.925781 C 40.46875 133.851562 39.882812 134.804688 39.335938 135.785156 C 38.792969 136.761719 38.292969 137.765625 37.835938 138.789062 C 37.378906 139.8125 36.972656 140.855469 36.609375 141.914062 C 36.246094 142.972656 35.929688 144.046875 35.660156 145.136719 C 35.394531 146.222656 35.175781 147.320312 35.003906 148.429688 L 6.140625 331.113281 C 5.929688 332.460938 5.789062 333.820312 5.722656 335.1875 C 5.65625 336.554688 5.664062 337.917969 5.746094 339.285156 C 5.828125 340.648438 5.984375 342.003906 6.210938 343.351562 C 6.4375 344.703125 6.738281 346.035156 7.109375 347.351562 C 7.484375 348.664062 7.925781 349.957031 8.4375 351.226562 C 8.949219 352.492188 9.527344 353.730469 10.171875 354.9375 C 10.816406 356.144531 11.523438 357.308594 12.296875 358.4375 C 13.066406 359.570312 13.894531 360.652344 14.785156 361.691406 C 15.671875 362.730469 16.613281 363.722656 17.609375 364.660156 C 18.605469 365.597656 19.648438 366.476562 20.738281 367.304688 C 21.828125 368.128906 22.960938 368.894531 24.132812 369.597656 C 25.304688 370.300781 26.511719 370.9375 27.753906 371.511719 C 28.996094 372.082031 30.265625 372.585938 31.5625 373.023438 C 32.859375 373.457031 34.171875 373.820312 35.507812 374.117188 C 36.84375 374.410156 38.191406 374.628906 39.550781 374.777344 C 40.910156 374.925781 42.273438 375 43.640625 375 L 332.003906 375 C 333.371094 375 334.734375 374.925781 336.09375 374.777344 C 337.453125 374.628906 338.800781 374.410156 340.136719 374.117188 C 341.472656 373.820312 342.789062 373.457031 344.085938 373.023438 C 345.382812 372.585938 346.648438 372.082031 347.890625 371.511719 C 349.132812 370.9375 350.339844 370.300781 351.515625 369.597656 C 352.6875 368.894531 353.820312 368.128906 354.910156 367.304688 C 356 366.476562 357.042969 365.597656 358.035156 364.660156 C 359.03125 363.722656 359.972656 362.730469 360.863281 361.691406 C 361.75 360.652344 362.582031 359.570312 363.351562 358.4375 C 364.121094 357.308594 364.832031 356.140625 365.476562 354.9375 C 366.121094 353.730469 366.699219 352.492188 367.210938 351.226562 C 367.722656 349.957031 368.164062 348.664062 368.535156 347.351562 C 368.90625 346.035156 369.207031 344.703125 369.433594 343.351562 C 369.664062 342.003906 369.816406 340.648438 369.898438 339.285156 C 369.980469 337.917969 369.988281 336.554688 369.921875 335.1875 C 369.855469 333.820312 369.71875 332.460938 369.503906 331.113281 Z M 41.613281 61.65625 L 21.179688 20.792969 C 21.078125 20.585938 20.988281 20.375 20.910156 20.15625 C 20.835938 19.941406 20.773438 19.71875 20.726562 19.492188 C 20.675781 19.265625 20.644531 19.039062 20.625 18.808594 C 20.605469 18.582031 20.601562 18.351562 20.613281 18.121094 C 20.621094 17.890625 20.648438 17.660156 20.6875 17.433594 C 20.726562 17.207031 20.78125 16.984375 20.847656 16.761719 C 20.914062 16.542969 20.996094 16.328125 21.09375 16.117188 C 21.1875 15.90625 21.296875 15.703125 21.417969 15.507812 C 21.539062 15.3125 21.671875 15.125 21.816406 14.945312 C 21.960938 14.765625 22.117188 14.597656 22.285156 14.4375 C 22.449219 14.277344 22.625 14.128906 22.8125 13.992188 C 22.996094 13.855469 23.191406 13.730469 23.390625 13.617188 C 23.59375 13.507812 23.800781 13.40625 24.015625 13.320312 C 24.230469 13.234375 24.445312 13.164062 24.671875 13.105469 C 24.894531 13.046875 25.121094 13.003906 25.347656 12.976562 C 25.578125 12.945312 25.804688 12.929688 26.035156 12.929688 L 349.609375 12.929688 C 349.839844 12.929688 350.070312 12.945312 350.296875 12.976562 C 350.527344 13.003906 350.753906 13.046875 350.976562 13.105469 C 351.199219 13.164062 351.417969 13.234375 351.632812 13.320312 C 351.847656 13.40625 352.054688 13.507812 352.253906 13.617188 C 352.457031 13.730469 352.648438 13.855469 352.835938 13.992188 C 353.019531 14.128906 353.195312 14.277344 353.363281 14.4375 C 353.53125 14.597656 353.683594 14.765625 353.832031 14.945312 C 353.976562 15.125 354.109375 15.3125 354.230469 15.507812 C 354.351562 15.703125 354.460938 15.90625 354.554688 16.117188 C 354.648438 16.328125 354.730469 16.542969 354.800781 16.761719 C 354.867188 16.984375 354.921875 17.207031 354.960938 17.433594 C 355 17.660156 355.023438 17.890625 355.035156 18.121094 C 355.042969 18.351562 355.039062 18.582031 355.019531 18.808594 C 355.003906 19.039062 354.96875 19.265625 354.921875 19.492188 C 354.871094 19.71875 354.8125 19.941406 354.734375 20.15625 C 354.660156 20.375 354.570312 20.585938 354.464844 20.792969 L 334.035156 61.65625 C 333.808594 62.105469 333.527344 62.519531 333.1875 62.890625 C 332.847656 63.265625 332.464844 63.585938 332.035156 63.847656 C 331.605469 64.113281 331.148438 64.316406 330.664062 64.453125 C 330.179688 64.589844 329.683594 64.65625 329.179688 64.65625 L 46.46875 64.65625 C 45.964844 64.65625 45.46875 64.589844 44.984375 64.453125 C 44.496094 64.316406 44.039062 64.113281 43.609375 63.847656 C 43.183594 63.585938 42.796875 63.265625 42.457031 62.890625 C 42.117188 62.519531 41.835938 62.105469 41.613281 61.65625 Z M 136.097656 77.585938 L 239.546875 77.585938 L 239.546875 116.378906 L 136.097656 116.378906 Z M 351.027344 353.296875 C 349.851562 354.671875 348.542969 355.902344 347.101562 356.996094 C 345.660156 358.085938 344.121094 359.011719 342.476562 359.769531 C 340.835938 360.527344 339.132812 361.097656 337.367188 361.488281 C 335.597656 361.875 333.8125 362.070312 332.003906 362.070312 L 43.640625 362.070312 C 42.742188 362.070312 41.839844 362.019531 40.945312 361.921875 C 40.046875 361.824219 39.160156 361.679688 38.277344 361.488281 C 37.398438 361.292969 36.527344 361.054688 35.671875 360.765625 C 34.820312 360.480469 33.980469 360.144531 33.164062 359.769531 C 32.34375 359.390625 31.546875 358.96875 30.773438 358.507812 C 30 358.042969 29.253906 357.539062 28.535156 356.996094 C 27.816406 356.449219 27.128906 355.867188 26.472656 355.25 C 25.816406 354.632812 25.195312 353.980469 24.609375 353.292969 C 24.023438 352.609375 23.472656 351.894531 22.964844 351.148438 C 22.457031 350.402344 21.992188 349.632812 21.566406 348.835938 C 21.140625 348.042969 20.757812 347.226562 20.421875 346.390625 C 20.082031 345.554688 19.792969 344.699219 19.546875 343.832031 C 19.300781 342.964844 19.105469 342.085938 18.953125 341.195312 C 18.804688 340.308594 18.703125 339.414062 18.648438 338.511719 C 18.597656 337.613281 18.589844 336.710938 18.636719 335.808594 C 18.679688 334.910156 18.769531 334.015625 18.910156 333.121094 L 47.753906 150.441406 C 47.867188 149.710938 48.011719 148.984375 48.1875 148.265625 C 48.367188 147.550781 48.574219 146.839844 48.8125 146.140625 C 49.054688 145.441406 49.324219 144.753906 49.625 144.082031 C 49.925781 143.40625 50.257812 142.746094 50.617188 142.097656 C 50.976562 141.453125 51.363281 140.824219 51.78125 140.214844 C 52.195312 139.601562 52.640625 139.011719 53.105469 138.441406 C 53.574219 137.867188 54.070312 137.316406 54.585938 136.789062 C 55.101562 136.261719 55.644531 135.757812 56.207031 135.277344 C 56.765625 134.796875 57.351562 134.34375 57.953125 133.917969 C 58.554688 133.488281 59.175781 133.085938 59.8125 132.714844 C 60.453125 132.339844 61.105469 131.996094 61.773438 131.683594 C 62.441406 131.367188 63.125 131.082031 63.820312 130.828125 C 64.511719 130.574219 65.214844 130.351562 65.929688 130.160156 C 66.644531 129.96875 67.367188 129.808594 68.09375 129.683594 C 68.820312 129.554688 69.554688 129.460938 70.289062 129.398438 C 71.027344 129.335938 71.765625 129.308594 72.503906 129.308594 L 303.140625 129.308594 C 303.882812 129.308594 304.617188 129.335938 305.355469 129.398438 C 306.089844 129.460938 306.824219 129.558594 307.550781 129.683594 C 308.277344 129.8125 309 129.972656 309.714844 130.164062 C 310.425781 130.355469 311.128906 130.578125 311.824219 130.832031 C 312.519531 131.085938 313.199219 131.371094 313.867188 131.6875 C 314.535156 132 315.1875 132.347656 315.828125 132.71875 C 316.464844 133.09375 317.085938 133.492188 317.6875 133.921875 C 318.289062 134.347656 318.871094 134.800781 319.433594 135.28125 C 319.996094 135.761719 320.535156 136.265625 321.050781 136.792969 C 321.570312 137.320312 322.0625 137.871094 322.53125 138.445312 C 322.996094 139.015625 323.441406 139.605469 323.855469 140.21875 C 324.269531 140.828125 324.660156 141.457031 325.019531 142.101562 C 325.378906 142.746094 325.707031 143.40625 326.007812 144.082031 C 326.308594 144.757812 326.582031 145.445312 326.820312 146.144531 C 327.058594 146.84375 327.269531 147.550781 327.445312 148.269531 C 327.621094 148.984375 327.765625 149.710938 327.878906 150.441406 L 356.722656 333.121094 C 357.003906 334.910156 357.09375 336.707031 356.988281 338.511719 C 356.882812 340.320312 356.582031 342.09375 356.089844 343.835938 C 355.597656 345.578125 354.925781 347.246094 354.070312 348.839844 C 353.21875 350.433594 352.203125 351.921875 351.027344 353.296875 Z M 187.824219 181.035156 C 186.554688 181.035156 185.285156 181.066406 184.015625 181.128906 C 182.75 181.191406 181.480469 181.285156 180.21875 181.40625 C 178.953125 181.53125 177.695312 181.6875 176.4375 181.875 C 175.183594 182.058594 173.933594 182.277344 172.6875 182.523438 C 171.441406 182.773438 170.203125 183.050781 168.972656 183.359375 C 167.738281 183.667969 166.515625 184.007812 165.300781 184.375 C 164.085938 184.742188 162.878906 185.140625 161.683594 185.570312 C 160.488281 185.996094 159.304688 186.453125 158.132812 186.941406 C 156.960938 187.425781 155.796875 187.941406 154.652344 188.484375 C 153.503906 189.027344 152.371094 189.597656 151.25 190.195312 C 150.128906 190.792969 149.023438 191.421875 147.9375 192.074219 C 146.847656 192.726562 145.773438 193.40625 144.71875 194.109375 C 143.664062 194.816406 142.625 195.546875 141.605469 196.304688 C 140.585938 197.058594 139.585938 197.839844 138.601562 198.644531 C 137.621094 199.453125 136.660156 200.28125 135.71875 201.132812 C 134.777344 201.984375 133.859375 202.859375 132.960938 203.757812 C 132.0625 204.65625 131.1875 205.574219 130.335938 206.515625 C 129.484375 207.457031 128.652344 208.417969 127.847656 209.402344 C 127.042969 210.382812 126.261719 211.382812 125.503906 212.402344 C 124.75 213.421875 124.019531 214.460938 123.3125 215.515625 C 122.605469 216.570312 121.929688 217.644531 121.273438 218.734375 C 120.621094 219.824219 119.996094 220.925781 119.398438 222.046875 C 118.800781 223.167969 118.230469 224.300781 117.6875 225.449219 C 117.144531 226.597656 116.628906 227.757812 116.144531 228.929688 C 115.65625 230.101562 115.199219 231.285156 114.773438 232.484375 C 114.34375 233.679688 113.945312 234.882812 113.578125 236.097656 C 113.210938 237.3125 112.871094 238.535156 112.5625 239.769531 C 112.253906 241 111.976562 242.238281 111.726562 243.484375 C 111.480469 244.730469 111.261719 245.980469 111.078125 247.238281 C 110.890625 248.492188 110.734375 249.753906 110.609375 251.015625 C 110.484375 252.28125 110.394531 253.546875 110.332031 254.8125 C 110.269531 256.082031 110.238281 257.351562 110.238281 258.621094 C 110.238281 259.890625 110.269531 261.160156 110.332031 262.425781 C 110.394531 263.695312 110.484375 264.960938 110.609375 266.226562 C 110.734375 267.488281 110.890625 268.75 111.078125 270.003906 C 111.261719 271.261719 111.480469 272.511719 111.726562 273.757812 C 111.976562 275.003906 112.253906 276.242188 112.5625 277.472656 C 112.871094 278.703125 113.210938 279.925781 113.578125 281.144531 C 113.945312 282.359375 114.34375 283.5625 114.773438 284.757812 C 115.199219 285.953125 115.65625 287.136719 116.144531 288.3125 C 116.628906 289.484375 117.144531 290.644531 117.6875 291.792969 C 118.230469 292.941406 118.800781 294.074219 119.398438 295.195312 C 119.996094 296.3125 120.621094 297.417969 121.273438 298.507812 C 121.929688 299.597656 122.605469 300.667969 123.3125 301.726562 C 124.019531 302.78125 124.75 303.820312 125.503906 304.839844 C 126.261719 305.859375 127.042969 306.859375 127.847656 307.839844 C 128.652344 308.824219 129.484375 309.785156 130.335938 310.722656 C 131.1875 311.664062 132.0625 312.585938 132.960938 313.480469 C 133.859375 314.378906 134.777344 315.253906 135.71875 316.109375 C 136.660156 316.960938 137.621094 317.789062 138.601562 318.59375 C 139.585938 319.402344 140.585938 320.183594 141.605469 320.9375 C 142.625 321.695312 143.664062 322.425781 144.71875 323.132812 C 145.773438 323.835938 146.847656 324.515625 147.9375 325.167969 C 149.023438 325.820312 150.128906 326.445312 151.25 327.046875 C 152.371094 327.644531 153.503906 328.214844 154.652344 328.757812 C 155.796875 329.300781 156.960938 329.816406 158.132812 330.300781 C 159.304688 330.785156 160.488281 331.242188 161.683594 331.671875 C 162.878906 332.097656 164.085938 332.496094 165.300781 332.867188 C 166.515625 333.234375 167.738281 333.574219 168.972656 333.882812 C 170.203125 334.191406 171.441406 334.46875 172.6875 334.714844 C 173.933594 334.964844 175.183594 335.179688 176.4375 335.367188 C 177.695312 335.554688 178.953125 335.707031 180.21875 335.832031 C 181.480469 335.957031 182.75 336.050781 184.015625 336.113281 C 185.285156 336.175781 186.554688 336.207031 187.824219 336.207031 C 189.09375 336.207031 190.363281 336.175781 191.628906 336.113281 C 192.898438 336.050781 194.164062 335.957031 195.429688 335.832031 C 196.691406 335.707031 197.953125 335.554688 199.207031 335.367188 C 200.464844 335.179688 201.714844 334.964844 202.960938 334.714844 C 204.203125 334.46875 205.445312 334.191406 206.675781 333.882812 C 207.90625 333.574219 209.128906 333.234375 210.34375 332.867188 C 211.558594 332.496094 212.765625 332.097656 213.960938 331.671875 C 215.15625 331.242188 216.339844 330.785156 217.515625 330.300781 C 218.6875 329.816406 219.847656 329.300781 220.996094 328.757812 C 222.144531 328.214844 223.277344 327.644531 224.398438 327.046875 C 225.515625 326.445312 226.621094 325.820312 227.710938 325.167969 C 228.800781 324.515625 229.871094 323.835938 230.929688 323.132812 C 231.984375 322.425781 233.019531 321.695312 234.042969 320.9375 C 235.0625 320.183594 236.0625 319.402344 237.042969 318.59375 C 238.023438 317.789062 238.984375 316.960938 239.925781 316.109375 C 240.867188 315.253906 241.789062 314.378906 242.683594 313.480469 C 243.582031 312.585938 244.457031 311.664062 245.3125 310.722656 C 246.164062 309.785156 246.992188 308.824219 247.796875 307.839844 C 248.605469 306.859375 249.382812 305.859375 250.140625 304.839844 C 250.898438 303.820312 251.628906 302.78125 252.332031 301.726562 C 253.039062 300.667969 253.71875 299.597656 254.371094 298.507812 C 255.023438 297.417969 255.648438 296.3125 256.25 295.195312 C 256.847656 294.074219 257.417969 292.941406 257.960938 291.792969 C 258.503906 290.644531 259.019531 289.484375 259.503906 288.3125 C 259.988281 287.136719 260.445312 285.953125 260.875 284.757812 C 261.300781 283.5625 261.699219 282.359375 262.070312 281.144531 C 262.4375 279.925781 262.777344 278.703125 263.085938 277.472656 C 263.394531 276.242188 263.671875 275.003906 263.917969 273.757812 C 264.167969 272.511719 264.382812 271.261719 264.570312 270.003906 C 264.757812 268.75 264.910156 267.488281 265.035156 266.226562 C 265.160156 264.960938 265.253906 263.695312 265.316406 262.425781 C 265.378906 261.160156 265.410156 259.890625 265.410156 258.621094 C 265.40625 257.351562 265.375 256.082031 265.3125 254.816406 C 265.25 253.546875 265.152344 252.28125 265.027344 251.019531 C 264.902344 249.753906 264.746094 248.496094 264.558594 247.242188 C 264.371094 245.984375 264.152344 244.734375 263.90625 243.488281 C 263.65625 242.246094 263.378906 241.007812 263.066406 239.777344 C 262.757812 238.546875 262.417969 237.324219 262.050781 236.109375 C 261.679688 234.894531 261.28125 233.6875 260.851562 232.492188 C 260.425781 231.300781 259.96875 230.113281 259.480469 228.941406 C 258.996094 227.769531 258.480469 226.609375 257.9375 225.464844 C 257.394531 224.316406 256.820312 223.183594 256.222656 222.0625 C 255.625 220.945312 255 219.839844 254.34375 218.75 C 253.691406 217.664062 253.011719 216.589844 252.308594 215.535156 C 251.601562 214.480469 250.871094 213.441406 250.113281 212.425781 C 249.359375 211.40625 248.578125 210.402344 247.773438 209.421875 C 246.96875 208.441406 246.136719 207.480469 245.285156 206.539062 C 244.433594 205.601562 243.558594 204.679688 242.660156 203.785156 C 241.761719 202.886719 240.84375 202.011719 239.902344 201.160156 C 238.960938 200.304688 238 199.476562 237.019531 198.671875 C 236.039062 197.867188 235.039062 197.085938 234.019531 196.328125 C 233 195.574219 231.964844 194.839844 230.90625 194.136719 C 229.851562 193.429688 228.78125 192.75 227.691406 192.097656 C 226.605469 191.445312 225.5 190.820312 224.378906 190.21875 C 223.261719 189.621094 222.128906 189.050781 220.980469 188.507812 C 219.832031 187.964844 218.671875 187.449219 217.5 186.960938 C 216.328125 186.476562 215.144531 186.019531 213.949219 185.589844 C 212.753906 185.164062 211.550781 184.761719 210.335938 184.394531 C 209.121094 184.023438 207.898438 183.683594 206.667969 183.375 C 205.4375 183.066406 204.199219 182.789062 202.953125 182.539062 C 201.707031 182.289062 200.457031 182.074219 199.203125 181.886719 C 197.949219 181.699219 196.6875 181.542969 195.425781 181.414062 C 194.164062 181.289062 192.898438 181.195312 191.628906 181.132812 C 190.359375 181.066406 189.09375 181.035156 187.824219 181.035156 Z M 187.824219 323.277344 C 186.765625 323.277344 185.707031 323.25 184.652344 323.199219 C 183.59375 323.144531 182.539062 323.066406 181.484375 322.964844 C 180.433594 322.859375 179.382812 322.730469 178.335938 322.574219 C 177.289062 322.421875 176.246094 322.238281 175.210938 322.035156 C 174.171875 321.828125 173.140625 321.59375 172.113281 321.339844 C 171.085938 321.082031 170.066406 320.800781 169.054688 320.492188 C 168.042969 320.183594 167.039062 319.851562 166.042969 319.496094 C 165.046875 319.140625 164.058594 318.757812 163.082031 318.355469 C 162.101562 317.949219 161.136719 317.519531 160.179688 317.066406 C 159.222656 316.617188 158.277344 316.140625 157.34375 315.640625 C 156.410156 315.140625 155.492188 314.621094 154.582031 314.078125 C 153.675781 313.53125 152.78125 312.96875 151.902344 312.378906 C 151.023438 311.792969 150.15625 311.183594 149.308594 310.550781 C 148.457031 309.921875 147.625 309.269531 146.804688 308.601562 C 145.988281 307.929688 145.1875 307.238281 144.402344 306.527344 C 143.621094 305.816406 142.851562 305.085938 142.105469 304.339844 C 141.355469 303.589844 140.628906 302.824219 139.917969 302.039062 C 139.207031 301.257812 138.515625 300.457031 137.84375 299.636719 C 137.171875 298.820312 136.523438 297.984375 135.890625 297.136719 C 135.261719 296.285156 134.652344 295.421875 134.0625 294.542969 C 133.476562 293.660156 132.910156 292.769531 132.367188 291.859375 C 131.824219 290.953125 131.300781 290.03125 130.800781 289.097656 C 130.304688 288.164062 129.828125 287.222656 129.375 286.265625 C 128.921875 285.308594 128.496094 284.339844 128.089844 283.363281 C 127.683594 282.386719 127.304688 281.398438 126.949219 280.402344 C 126.589844 279.40625 126.257812 278.402344 125.953125 277.390625 C 125.644531 276.375 125.363281 275.355469 125.105469 274.332031 C 124.847656 273.304688 124.617188 272.273438 124.410156 271.234375 C 124.203125 270.195312 124.023438 269.152344 123.867188 268.109375 C 123.710938 267.0625 123.582031 266.011719 123.480469 264.957031 C 123.375 263.90625 123.296875 262.851562 123.246094 261.792969 C 123.195312 260.734375 123.167969 259.679688 123.167969 258.621094 C 123.167969 257.5625 123.195312 256.503906 123.246094 255.449219 C 123.296875 254.390625 123.375 253.335938 123.480469 252.285156 C 123.582031 251.230469 123.710938 250.179688 123.867188 249.132812 C 124.023438 248.085938 124.203125 247.042969 124.410156 246.007812 C 124.617188 244.96875 124.847656 243.9375 125.105469 242.910156 C 125.363281 241.882812 125.644531 240.863281 125.953125 239.851562 C 126.257812 238.839844 126.589844 237.835938 126.949219 236.839844 C 127.304688 235.84375 127.683594 234.855469 128.089844 233.878906 C 128.496094 232.902344 128.921875 231.933594 129.375 230.976562 C 129.828125 230.019531 130.304688 229.074219 130.800781 228.140625 C 131.300781 227.210938 131.824219 226.289062 132.367188 225.382812 C 132.910156 224.472656 133.476562 223.578125 134.0625 222.699219 C 134.652344 221.820312 135.261719 220.957031 135.890625 220.105469 C 136.523438 219.253906 137.171875 218.421875 137.84375 217.605469 C 138.515625 216.785156 139.207031 215.984375 139.917969 215.199219 C 140.628906 214.417969 141.355469 213.652344 142.105469 212.902344 C 142.851562 212.15625 143.621094 211.425781 144.402344 210.714844 C 145.1875 210.003906 145.988281 209.3125 146.804688 208.640625 C 147.625 207.96875 148.457031 207.320312 149.308594 206.6875 C 150.15625 206.058594 151.023438 205.449219 151.902344 204.863281 C 152.78125 204.273438 153.675781 203.707031 154.582031 203.164062 C 155.492188 202.621094 156.410156 202.097656 157.34375 201.601562 C 158.277344 201.101562 159.222656 200.625 160.179688 200.171875 C 161.136719 199.71875 162.101562 199.292969 163.082031 198.886719 C 164.058594 198.480469 165.046875 198.101562 166.042969 197.746094 C 167.039062 197.386719 168.042969 197.058594 169.054688 196.75 C 170.066406 196.441406 171.085938 196.160156 172.113281 195.902344 C 173.140625 195.644531 174.171875 195.414062 175.210938 195.207031 C 176.246094 195 177.289062 194.820312 178.335938 194.664062 C 179.382812 194.511719 180.433594 194.378906 181.484375 194.277344 C 182.539062 194.171875 183.59375 194.09375 184.652344 194.042969 C 185.707031 193.992188 186.765625 193.964844 187.824219 193.964844 C 188.882812 193.964844 189.9375 193.992188 190.996094 194.042969 C 192.050781 194.09375 193.109375 194.171875 194.160156 194.277344 C 195.214844 194.378906 196.261719 194.511719 197.308594 194.664062 C 198.355469 194.820312 199.398438 195 200.4375 195.207031 C 201.476562 195.414062 202.507812 195.644531 203.53125 195.902344 C 204.558594 196.160156 205.578125 196.441406 206.589844 196.75 C 207.605469 197.058594 208.609375 197.386719 209.605469 197.746094 C 210.601562 198.101562 211.589844 198.480469 212.566406 198.886719 C 213.542969 199.292969 214.511719 199.71875 215.46875 200.171875 C 216.421875 200.625 217.367188 201.101562 218.300781 201.601562 C 219.234375 202.097656 220.15625 202.621094 221.0625 203.164062 C 221.96875 203.707031 222.863281 204.273438 223.742188 204.863281 C 224.625 205.449219 225.488281 206.058594 226.339844 206.6875 C 227.1875 207.320312 228.023438 207.96875 228.839844 208.640625 C 229.65625 209.3125 230.460938 210.003906 231.242188 210.714844 C 232.027344 211.425781 232.792969 212.15625 233.542969 212.902344 C 234.289062 213.652344 235.019531 214.417969 235.730469 215.199219 C 236.441406 215.984375 237.132812 216.785156 237.800781 217.605469 C 238.472656 218.421875 239.125 219.253906 239.753906 220.105469 C 240.386719 220.957031 240.996094 221.820312 241.582031 222.699219 C 242.171875 223.578125 242.734375 224.472656 243.28125 225.382812 C 243.824219 226.289062 244.34375 227.210938 244.84375 228.140625 C 245.34375 229.074219 245.820312 230.019531 246.269531 230.976562 C 246.722656 231.933594 247.152344 232.902344 247.558594 233.878906 C 247.960938 234.855469 248.34375 235.84375 248.699219 236.839844 C 249.054688 237.835938 249.386719 238.839844 249.695312 239.851562 C 250 240.863281 250.285156 241.882812 250.539062 242.910156 C 250.796875 243.9375 251.03125 244.96875 251.234375 246.007812 C 251.441406 247.042969 251.625 248.085938 251.777344 249.132812 C 251.933594 250.179688 252.0625 251.230469 252.167969 252.285156 C 252.269531 253.335938 252.347656 254.390625 252.402344 255.449219 C 252.453125 256.503906 252.476562 257.5625 252.476562 258.621094 C 252.476562 259.679688 252.449219 260.734375 252.398438 261.792969 C 252.34375 262.847656 252.265625 263.902344 252.160156 264.957031 C 252.054688 266.007812 251.925781 267.058594 251.769531 268.105469 C 251.613281 269.148438 251.429688 270.191406 251.222656 271.230469 C 251.015625 272.265625 250.785156 273.296875 250.527344 274.324219 C 250.269531 275.351562 249.984375 276.367188 249.679688 277.382812 C 249.371094 278.394531 249.039062 279.398438 248.679688 280.394531 C 248.324219 281.386719 247.941406 282.375 247.539062 283.351562 C 247.132812 284.328125 246.703125 285.296875 246.25 286.25 C 245.796875 287.207031 245.320312 288.152344 244.824219 289.085938 C 244.324219 290.015625 243.800781 290.9375 243.257812 291.84375 C 242.714844 292.75 242.148438 293.644531 241.558594 294.523438 C 240.972656 295.402344 240.363281 296.269531 239.734375 297.117188 C 239.101562 297.96875 238.453125 298.800781 237.78125 299.617188 C 237.109375 300.4375 236.417969 301.238281 235.707031 302.019531 C 234.996094 302.804688 234.269531 303.570312 233.519531 304.316406 C 232.773438 305.066406 232.007812 305.796875 231.222656 306.503906 C 230.4375 307.214844 229.636719 307.90625 228.820312 308.578125 C 228.003906 309.25 227.167969 309.898438 226.320312 310.53125 C 225.472656 311.160156 224.605469 311.769531 223.726562 312.359375 C 222.847656 312.945312 221.953125 313.511719 221.046875 314.054688 C 220.140625 314.601562 219.21875 315.121094 218.289062 315.621094 C 217.355469 316.121094 216.410156 316.59375 215.453125 317.046875 C 214.5 317.5 213.53125 317.929688 212.554688 318.335938 C 211.578125 318.742188 210.589844 319.121094 209.59375 319.480469 C 208.601562 319.835938 207.597656 320.167969 206.582031 320.476562 C 205.570312 320.785156 204.550781 321.066406 203.527344 321.324219 C 202.5 321.582031 201.46875 321.816406 200.433594 322.023438 C 199.394531 322.230469 198.351562 322.410156 197.304688 322.566406 C 196.261719 322.722656 195.210938 322.851562 194.160156 322.957031 C 193.105469 323.0625 192.050781 323.140625 190.996094 323.195312 C 189.9375 323.246094 188.882812 323.273438 187.824219 323.277344 Z M 218.257812 228.1875 C 218.554688 228.488281 218.824219 228.8125 219.058594 229.167969 C 219.296875 229.519531 219.496094 229.894531 219.65625 230.285156 C 219.820312 230.675781 219.941406 231.082031 220.023438 231.496094 C 220.109375 231.914062 220.148438 232.335938 220.148438 232.757812 C 220.148438 233.183594 220.109375 233.601562 220.023438 234.019531 C 219.941406 234.4375 219.820312 234.839844 219.65625 235.230469 C 219.496094 235.625 219.296875 235.996094 219.058594 236.351562 C 218.824219 236.703125 218.554688 237.03125 218.257812 237.328125 L 192.394531 263.191406 C 192.09375 263.484375 191.765625 263.742188 191.414062 263.972656 C 191.058594 264.199219 190.6875 264.390625 190.300781 264.546875 C 189.910156 264.703125 189.507812 264.820312 189.09375 264.894531 C 188.683594 264.972656 188.265625 265.011719 187.847656 265.007812 C 187.425781 265.003906 187.011719 264.957031 186.601562 264.875 C 186.1875 264.789062 185.789062 264.667969 185.402344 264.503906 C 185.015625 264.339844 184.648438 264.144531 184.300781 263.910156 C 183.949219 263.675781 183.628906 263.410156 183.332031 263.113281 C 183.035156 262.816406 182.769531 262.492188 182.535156 262.144531 C 182.300781 261.796875 182.101562 261.429688 181.941406 261.042969 C 181.777344 260.65625 181.652344 260.253906 181.570312 259.84375 C 181.484375 259.433594 181.441406 259.015625 181.4375 258.597656 C 181.433594 258.175781 181.46875 257.761719 181.546875 257.347656 C 181.625 256.9375 181.742188 256.535156 181.898438 256.144531 C 182.054688 255.753906 182.246094 255.382812 182.472656 255.03125 C 182.699219 254.679688 182.960938 254.351562 183.253906 254.050781 L 209.113281 228.1875 C 209.414062 227.886719 209.742188 227.621094 210.09375 227.382812 C 210.445312 227.148438 210.820312 226.949219 211.210938 226.785156 C 211.605469 226.625 212.007812 226.5 212.425781 226.417969 C 212.839844 226.335938 213.261719 226.292969 213.683594 226.292969 C 214.109375 226.292969 214.53125 226.335938 214.945312 226.417969 C 215.363281 226.5 215.765625 226.625 216.160156 226.785156 C 216.550781 226.949219 216.925781 227.148438 217.277344 227.382812 C 217.628906 227.621094 217.957031 227.886719 218.257812 228.1875 Z M 218.257812 228.1875 " fill-opacity="1" fill-rule="nonzero"/></svg>