<svg xmlns="http://www.w3.org/2000/svg" xmlns:xlink="http://www.w3.org/1999/xlink" width="500" zoomAndPan="magnify" viewBox="0 0 375 374.999991" height="500" preserveAspectRatio="xMidYMid meet" version="1.0"><defs><clipPath id="80561d1694"><path d="M 1 21.09375 L 374 21.09375 L 374 354 L 1 354 Z M 1 21.09375 " clip-rule="nonzero"/></clipPath></defs><g clip-path="url(#80561d1694)"><path fill="#30792a" d="M 173.285156 334.117188 C 174.121094 337.183594 172.449219 340.25 169.382812 341.085938 C 164.921875 342.199219 160.460938 343.59375 155.722656 344.707031 C 155.722656 344.707031 155.722656 344.707031 155.445312 344.707031 L 152.9375 345.265625 C 152.378906 345.265625 152.101562 345.542969 151.542969 345.542969 C 149.035156 345.542969 146.804688 343.871094 146.246094 341.363281 C 145.410156 338.296875 147.363281 335.230469 150.148438 334.671875 L 152.9375 334.117188 C 152.9375 334.117188 152.9375 334.117188 153.214844 334.117188 C 157.675781 333 162.136719 331.886719 166.316406 330.492188 C 169.382812 329.65625 172.449219 331.328125 173.285156 334.117188 Z M 128.964844 339.691406 C 124.503906 340.804688 120.046875 341.640625 115.308594 342.757812 C 112.242188 343.3125 110.289062 346.378906 111.125 349.445312 C 111.683594 351.953125 113.914062 353.90625 116.699219 353.90625 C 116.980469 353.90625 117.535156 353.90625 117.816406 353.90625 C 122.554688 352.792969 127.015625 351.957031 131.472656 350.839844 C 134.539062 350.28125 136.210938 347.214844 135.65625 344.152344 C 135.097656 341.085938 132.03125 339.132812 128.964844 339.691406 Z M 226.246094 204.503906 C 227.359375 205.339844 228.472656 205.617188 229.589844 205.617188 C 231.261719 205.617188 232.933594 204.78125 234.050781 203.386719 C 234.605469 202.832031 235.164062 202.273438 235.722656 201.4375 C 238.230469 198.648438 241.296875 195.863281 245.199219 193.074219 C 247.707031 191.125 248.265625 187.777344 246.3125 185.269531 C 244.363281 182.761719 241.015625 182.203125 238.507812 184.15625 C 234.050781 187.5 230.148438 190.84375 227.359375 194.191406 C 226.523438 195.027344 225.964844 195.863281 225.410156 196.699219 C 223.457031 199.207031 223.734375 202.832031 226.246094 204.503906 Z M 203.386719 318.785156 C 199.207031 320.179688 194.746094 321.851562 190.289062 323.246094 L 187.777344 324.082031 C 184.710938 324.917969 183.320312 328.261719 184.15625 331.050781 C 184.992188 333.558594 187.222656 334.953125 189.449219 334.953125 C 190.007812 334.953125 190.566406 334.953125 191.125 334.671875 L 193.910156 333.835938 C 198.648438 332.445312 203.109375 330.769531 207.289062 329.378906 C 210.078125 328.261719 211.75 325.195312 210.636719 322.128906 C 209.519531 319.34375 206.175781 317.949219 203.386719 318.785156 Z M 244.917969 254.398438 C 248.820312 257.742188 251.886719 260.25 254.675781 263.039062 C 254.675781 263.039062 254.675781 263.039062 254.953125 263.316406 C 255.511719 263.875 256.070312 264.429688 256.625 265.269531 C 257.742188 266.382812 259.136719 267.21875 260.808594 267.21875 C 262.203125 267.21875 263.316406 266.660156 264.429688 265.824219 C 266.660156 263.875 266.941406 260.25 264.988281 258.019531 C 264.429688 257.183594 263.59375 256.625 263.039062 256.070312 C 263.039062 256.070312 263.039062 256.070312 262.757812 255.789062 C 259.691406 252.722656 256.070312 249.660156 251.886719 246.035156 C 249.378906 244.082031 246.035156 244.363281 244.082031 246.871094 C 242.132812 249.378906 242.691406 252.445312 244.917969 254.398438 Z M 273.910156 165.199219 C 269.449219 167.152344 264.988281 169.101562 260.808594 171.054688 C 259.972656 171.613281 259.136719 171.890625 258.300781 172.449219 C 255.511719 173.84375 254.398438 177.1875 255.789062 179.972656 C 256.90625 181.925781 258.855469 183.039062 260.808594 183.039062 C 261.644531 183.039062 262.480469 182.761719 263.316406 182.484375 C 264.152344 182.203125 264.988281 181.644531 265.824219 181.367188 C 269.726562 179.417969 273.910156 177.464844 278.089844 175.792969 C 280.878906 174.679688 282.269531 171.332031 281.15625 168.546875 C 280.039062 165.199219 276.695312 164.085938 273.910156 165.199219 Z M 311.257812 151.542969 C 306.800781 152.9375 302.339844 154.332031 297.878906 156.003906 L 295.09375 156.839844 C 292.304688 157.953125 290.632812 161.019531 291.746094 164.085938 C 292.585938 166.316406 294.8125 167.710938 297.042969 167.710938 C 297.601562 167.710938 298.160156 167.710938 298.996094 167.429688 L 301.503906 166.59375 C 305.964844 165.199219 310.144531 163.527344 314.605469 162.136719 C 317.671875 161.296875 319.0625 157.953125 318.226562 155.167969 C 317.113281 152.378906 314.046875 150.707031 311.257812 151.542969 Z M 225.6875 236.835938 C 226.246094 237.671875 227.082031 238.507812 227.636719 239.066406 C 228.753906 240.179688 230.148438 241.015625 231.820312 241.015625 C 233.214844 241.015625 234.605469 240.460938 235.441406 239.625 C 237.671875 237.671875 237.953125 234.050781 235.722656 231.820312 C 235.164062 231.261719 234.605469 230.425781 234.050781 229.867188 C 231.261719 226.523438 229.589844 223.179688 228.753906 220.113281 C 228.195312 217.046875 225.128906 215.09375 222.0625 215.929688 C 218.996094 216.488281 217.046875 219.554688 217.882812 222.621094 C 219.277344 227.082031 221.785156 231.820312 225.6875 236.835938 Z M 268.890625 276.136719 C 265.824219 275.582031 263.039062 277.253906 262.203125 280.320312 C 261.644531 283.386719 259.691406 286.453125 256.90625 289.796875 C 256.347656 290.355469 255.789062 290.910156 255.234375 291.46875 C 253.003906 293.699219 253.003906 297.042969 255.234375 299.273438 C 256.347656 300.386719 257.742188 300.945312 259.136719 300.945312 C 260.527344 300.945312 261.921875 300.386719 263.039062 299.273438 C 263.875 298.4375 264.429688 297.878906 264.988281 297.042969 C 269.171875 292.304688 271.957031 287.566406 273.074219 282.550781 C 273.910156 280.039062 271.957031 276.976562 268.890625 276.136719 Z M 238.230469 303.734375 C 234.605469 305.683594 230.425781 307.914062 226.246094 309.867188 C 226.246094 309.867188 226.246094 309.867188 225.964844 309.867188 L 223.734375 310.980469 C 220.949219 312.09375 219.554688 315.441406 220.949219 318.226562 C 221.785156 320.179688 224.015625 321.574219 225.964844 321.574219 C 226.800781 321.574219 227.359375 321.292969 228.195312 321.015625 L 230.703125 319.898438 C 230.703125 319.898438 230.984375 319.898438 230.984375 319.898438 C 235.441406 317.671875 239.902344 315.71875 243.527344 313.488281 C 246.3125 312.09375 247.148438 308.472656 245.757812 305.964844 C 244.363281 303.175781 241.015625 302.0625 238.230469 303.734375 Z M 132.03125 192.515625 C 132.03125 219.832031 109.730469 242.132812 82.414062 242.132812 C 55.101562 242.132812 32.800781 219.832031 32.800781 192.515625 C 32.800781 165.199219 55.101562 142.902344 82.414062 142.902344 C 109.730469 142.902344 132.03125 165.199219 132.03125 192.515625 Z M 120.882812 192.515625 C 120.882812 171.332031 103.601562 154.050781 82.414062 154.050781 C 61.230469 154.050781 43.949219 171.332031 43.949219 192.515625 C 43.949219 213.703125 61.230469 230.984375 82.414062 230.984375 C 103.601562 230.984375 120.882812 213.703125 120.882812 192.515625 Z M 124.785156 289.238281 C 113.078125 307.078125 100.253906 324.359375 86.875 341.085938 C 85.761719 342.476562 84.089844 343.035156 82.414062 343.035156 C 80.742188 343.035156 79.070312 342.199219 77.957031 341.085938 C 64.578125 324.359375 51.753906 306.800781 40.046875 289.238281 C 11.617188 246.59375 1.304688 221.785156 1.304688 194.746094 C 1.304688 160.742188 32.242188 113.355469 82.414062 113.355469 C 132.589844 113.355469 163.25 160.460938 163.527344 194.46875 C 163.25 221.785156 153.214844 246.59375 124.785156 289.238281 Z M 115.585938 283.105469 C 146.246094 236.835938 152.378906 215.652344 152.378906 194.746094 C 152.378906 165.480469 125.621094 124.503906 82.414062 124.503906 C 39.210938 124.503906 12.730469 165.199219 12.453125 194.46875 C 12.453125 215.652344 18.585938 236.835938 49.246094 283.105469 C 59.558594 298.714844 70.710938 314.046875 82.414062 328.820312 C 94.121094 314.046875 105.273438 298.714844 115.585938 283.105469 Z M 356.972656 65.96875 C 356.972656 82.136719 343.871094 94.960938 327.984375 94.960938 C 312.09375 94.960938 298.996094 81.859375 298.996094 65.96875 C 298.996094 50.082031 312.09375 36.980469 327.984375 36.980469 C 343.871094 36.980469 356.972656 49.804688 356.972656 65.96875 Z M 345.824219 65.96875 C 345.824219 56.214844 337.738281 48.132812 327.984375 48.132812 C 318.226562 48.132812 310.144531 56.214844 310.144531 65.96875 C 310.144531 75.726562 318.226562 83.808594 327.984375 83.808594 C 337.738281 83.808594 345.824219 75.726562 345.824219 65.96875 Z M 373.695312 67.085938 C 373.695312 82.136719 368.121094 95.796875 352.511719 119.210938 C 346.101562 128.6875 339.410156 138.164062 332.164062 147.082031 C 331.050781 148.476562 329.378906 149.035156 327.703125 149.035156 C 326.03125 149.035156 324.359375 148.199219 323.246094 147.082031 C 315.996094 138.164062 309.03125 128.6875 302.898438 119.210938 C 287.289062 95.796875 281.992188 82.414062 281.714844 67.363281 C 281.714844 48.132812 299.273438 21.371094 327.425781 21.371094 C 356.136719 21.09375 373.695312 47.851562 373.695312 67.085938 Z M 362.546875 67.085938 C 362.546875 54.542969 350.839844 32.242188 327.984375 32.242188 C 304.847656 32.242188 293.421875 54.542969 293.421875 67.085938 C 293.421875 77.957031 296.484375 88.828125 312.652344 113.078125 C 317.390625 120.324219 322.6875 127.570312 328.261719 134.820312 C 333.835938 127.851562 338.855469 120.601562 343.871094 113.078125 C 359.203125 88.828125 362.546875 77.957031 362.546875 67.085938 Z M 362.546875 67.085938 " fill-opacity="1" fill-rule="nonzero"/></g></svg>