<svg xmlns="http://www.w3.org/2000/svg" xmlns:xlink="http://www.w3.org/1999/xlink" width="500" zoomAndPan="magnify" viewBox="0 0 375 374.999991" height="500" preserveAspectRatio="xMidYMid meet" version="1.0"><defs><clipPath id="9535573ea1"><path d="M 35.15625 0 L 338 0 L 338 375 L 35.15625 375 Z M 35.15625 0 " clip-rule="nonzero"/></clipPath></defs><g clip-path="url(#9535573ea1)"><path fill="#30792a" d="M 337.71875 136.828125 C 337.34375 122.273438 335.015625 108.023438 330.890625 94.519531 C 322.1875 66.089844 305.835938 42.082031 283.558594 25.203125 C 260.601562 7.726562 235.472656 0 202.164062 0 C 184.613281 0 167.359375 2.699219 151.003906 8.027344 C 134.726562 13.351562 119.949219 21.003906 107.195312 30.757812 C 99.394531 36.757812 92.417969 43.507812 86.417969 50.785156 C 80.265625 58.285156 75.238281 66.464844 71.414062 75.015625 C 67.4375 83.867188 64.664062 93.242188 63.3125 102.921875 C 61.886719 112.972656 61.886719 123.324219 63.3125 133.902344 C 63.613281 136.078125 63.988281 138.101562 64.363281 139.976562 C 65.636719 146.878906 66.539062 151.457031 62.261719 157.605469 C 59.710938 161.28125 53.109375 172.007812 46.960938 183.335938 C 43.660156 189.488281 40.957031 194.738281 39.082031 199.089844 C 35.707031 206.515625 35.332031 209.515625 35.332031 211.09375 C 35.332031 211.09375 35.332031 211.167969 35.332031 211.167969 C 35.480469 216.566406 38.109375 220.84375 42.910156 223.46875 C 46.585938 225.496094 50.785156 226.246094 54.234375 226.84375 C 55.511719 227.070312 57.160156 227.371094 57.761719 227.59375 C 59.5625 229.019531 59.9375 230.296875 57.6875 234.273438 C 55.359375 238.398438 54.6875 242 55.511719 245.375 C 56.261719 248.222656 57.910156 250.101562 59.113281 251.375 C 57.160156 255.351562 56.5625 258.425781 57.238281 261.128906 C 57.988281 264.277344 60.238281 266.226562 62.414062 268.105469 C 63.238281 268.777344 64.0625 269.527344 64.886719 270.355469 C 66.089844 271.554688 66.089844 271.554688 64.738281 274.628906 L 64.589844 274.929688 C 58.738281 287.457031 59.636719 300.734375 66.914062 310.488281 C 70.289062 314.988281 74.789062 318.4375 80.117188 320.539062 C 85.59375 322.714844 91.816406 323.390625 98.195312 322.414062 C 100.671875 322.039062 103.144531 321.589844 105.621094 321.214844 C 116.648438 319.339844 128.050781 317.3125 136.378906 321.363281 C 139.828125 323.015625 141.402344 327.890625 141.027344 335.84375 C 140.652344 343.71875 138.476562 353.09375 136.675781 360.597656 C 135.703125 364.648438 134.953125 368.097656 134.5 370.800781 C 134.351562 371.847656 134.652344 372.972656 135.328125 373.726562 C 136.003906 374.550781 137.050781 375 138.101562 375 L 307.863281 375 C 309.0625 375 310.1875 374.398438 310.863281 373.425781 C 311.539062 372.449219 311.6875 371.175781 311.3125 370.050781 C 309.660156 365.472656 307.863281 360.898438 305.910156 356.019531 C 300.886719 343.117188 295.632812 329.839844 292.332031 315.8125 C 286.480469 291.207031 288.207031 273.355469 297.882812 258.050781 C 297.882812 257.976562 297.960938 257.976562 297.960938 257.902344 C 298.859375 256.25 299.835938 254.601562 300.734375 252.949219 C 307.1875 241.699219 313.789062 229.996094 319.414062 218.144531 C 325.789062 204.789062 330.292969 192.339844 333.140625 180.109375 C 336.59375 165.933594 338.09375 151.378906 337.71875 136.828125 Z M 326.089844 178.535156 C 319.9375 204.566406 307.5625 226.320312 294.433594 249.425781 C 293.535156 251.074219 292.558594 252.652344 291.660156 254.300781 C 285.730469 263.675781 282.507812 273.804688 281.757812 285.28125 C 281.15625 294.808594 282.207031 305.085938 285.207031 317.613281 C 288.65625 332.089844 293.984375 345.667969 299.085938 358.796875 C 300.285156 361.871094 301.410156 364.796875 302.535156 367.722656 L 142.601562 367.722656 C 142.980469 366.074219 143.429688 364.273438 143.878906 362.324219 C 145.679688 354.519531 148.003906 344.769531 148.378906 336.21875 C 148.605469 331.265625 148.15625 327.214844 147.105469 323.839844 C 145.679688 319.5625 143.203125 316.488281 139.601562 314.761719 C 129.175781 309.738281 116.574219 311.914062 104.421875 314.011719 C 101.871094 314.460938 99.542969 314.839844 97.144531 315.214844 C 87.09375 316.714844 78.316406 313.414062 72.914062 306.136719 C 67.214844 298.558594 66.6875 288.058594 71.339844 278.003906 L 71.488281 277.707031 C 72.316406 275.832031 73.140625 274.105469 73.214844 272.078125 C 73.289062 269.605469 72.316406 267.351562 70.140625 265.179688 C 69.089844 264.128906 68.113281 263.300781 67.214844 262.550781 C 65.5625 261.128906 64.589844 260.226562 64.363281 259.402344 C 64.136719 258.578125 64.363281 256.851562 66.539062 252.949219 C 66.839844 252.425781 66.988281 251.824219 66.988281 251.148438 C 66.988281 248.976562 65.636719 247.550781 64.589844 246.425781 C 62.710938 244.472656 61.289062 242.898438 64.136719 237.871094 C 65.261719 235.847656 66.464844 233.371094 66.613281 230.597656 C 66.761719 228.195312 66.089844 224.667969 62.1875 221.667969 C 60.6875 220.46875 58.511719 220.09375 55.585938 219.570312 C 47.183594 218.070312 42.910156 216.34375 42.757812 210.941406 C 42.757812 210.042969 43.433594 205.089844 53.410156 186.710938 C 59.488281 175.609375 65.863281 165.183594 68.339844 161.582031 C 74.265625 152.878906 72.988281 145.828125 71.5625 138.402344 C 71.1875 136.601562 70.890625 134.726562 70.589844 132.703125 C 65.414062 94.894531 80.039062 60.761719 111.699219 36.53125 C 136.378906 17.628906 168.484375 7.277344 202.242188 7.277344 C 233.898438 7.277344 257.601562 14.554688 279.207031 30.90625 C 321.214844 62.9375 339.667969 120.847656 326.089844 178.535156 Z M 326.089844 178.535156 " fill-opacity="1" fill-rule="nonzero"/></g><path fill="#30792a" d="M 273.65625 81.917969 C 269.679688 67.511719 262.703125 55.359375 253.25 46.507812 C 245.972656 39.757812 236.898438 34.582031 226.171875 31.054688 C 217.019531 28.054688 206.667969 26.332031 195.414062 25.957031 C 186.789062 25.65625 178.761719 26.03125 171.558594 27.304688 C 163.082031 28.730469 155.429688 31.28125 148.679688 34.808594 C 141.402344 38.632812 135.402344 43.957031 130.902344 50.484375 C 126.625 56.710938 123.773438 63.835938 122.722656 71.265625 C 122.574219 72.613281 122.425781 73.964844 122.347656 75.316406 C 119.199219 77.339844 115.972656 79.816406 112.671875 82.589844 C 108.023438 86.492188 104.644531 90.019531 101.945312 93.617188 C 98.417969 98.34375 96.246094 103.144531 95.492188 108.097656 C 94.519531 113.949219 95.492188 120.023438 98.34375 126.101562 C 100.746094 131.277344 104.496094 136.300781 109.070312 140.578125 C 109.898438 141.402344 110.796875 142.152344 111.699219 142.902344 C 112.371094 150.628906 115.148438 156.78125 119.648438 160.757812 C 123.398438 163.984375 128.351562 165.707031 133.601562 165.707031 C 136.378906 165.707031 139.226562 165.183594 142.003906 164.207031 C 144.328125 163.382812 146.355469 162.257812 148.230469 160.980469 C 152.65625 162.257812 157.382812 163.234375 162.105469 163.234375 C 164.957031 163.234375 167.882812 162.859375 170.734375 162.03125 C 170.960938 163.382812 171.257812 164.734375 171.558594 166.082031 C 173.808594 176.210938 178.160156 183.785156 184.6875 188.738281 C 189.789062 192.636719 196.089844 194.8125 203.816406 195.488281 C 205.765625 195.640625 207.640625 195.714844 209.515625 195.714844 C 219.269531 195.714844 228.34375 193.539062 236.449219 189.261719 C 245.449219 184.535156 253.175781 177.261719 259.25 167.734375 C 261.128906 164.808594 262.476562 161.957031 263.300781 159.257812 C 265.703125 162.183594 268.253906 164.734375 271.105469 166.984375 C 276.503906 171.183594 282.28125 173.433594 287.683594 173.433594 C 289.109375 173.433594 290.457031 173.285156 291.808594 172.984375 C 296.234375 172.007812 300.210938 169.457031 303.511719 165.40625 C 306.136719 162.257812 308.3125 158.132812 309.886719 153.554688 C 311.539062 148.679688 312.585938 143.578125 312.960938 138.328125 C 313.335938 133.078125 312.960938 127.902344 311.988281 122.800781 C 309.886719 112.074219 304.9375 102.695312 297.660156 95.644531 C 291.734375 89.867188 284.230469 85.515625 275.304688 82.589844 C 274.855469 82.292969 274.253906 82.066406 273.65625 81.917969 Z M 267.953125 98.945312 C 265.703125 105.097656 256.027344 106.972656 250.398438 107.496094 C 250.023438 107.570312 249.574219 107.570312 249.199219 107.570312 C 246.875 101.195312 244.324219 95.042969 241.472656 89.269531 C 242.148438 88.066406 242.898438 86.792969 243.5 85.515625 C 245.523438 85.441406 247.550781 85.515625 249.726562 85.59375 C 255.050781 85.816406 261.277344 86.417969 267.503906 87.917969 C 268.480469 92.117188 269.078125 95.792969 267.953125 98.945312 Z M 184.910156 83.042969 C 183.113281 85.816406 181.386719 88.894531 179.734375 92.117188 C 178.460938 94.519531 177.335938 96.917969 176.359375 99.46875 C 174.410156 99.320312 172.460938 99.246094 170.507812 99.09375 C 170.132812 99.09375 169.683594 99.019531 169.308594 99.019531 C 169.757812 91.894531 170.433594 84.46875 172.160156 77.339844 C 176.285156 78.765625 180.484375 80.714844 184.910156 83.042969 Z M 174.335938 70.214844 C 176.136719 65.488281 178.535156 61.0625 181.910156 57.238281 C 185.960938 52.585938 192.636719 48.160156 199.464844 49.433594 C 204.117188 50.261719 208.089844 53.710938 211.542969 57.386719 C 208.015625 59.1875 204.640625 61.363281 201.414062 63.988281 C 197.0625 67.511719 193.011719 71.863281 189.1875 76.890625 C 183.9375 74.191406 179.0625 71.9375 174.335938 70.214844 Z M 181.3125 107.121094 C 185.960938 107.496094 190.613281 107.871094 195.265625 108.320312 C 195.1875 111.996094 195.9375 115.597656 196.765625 119.722656 C 197.289062 122.347656 197.890625 125.199219 198.339844 128.351562 C 195.414062 128.050781 192.5625 127.675781 189.714844 127.226562 C 185.285156 126.550781 181.085938 125.726562 177.183594 124.75 C 177.9375 118.671875 179.359375 112.746094 181.3125 107.121094 Z M 196.765625 101.121094 C 192.5625 100.671875 188.363281 100.296875 184.160156 99.996094 C 184.835938 98.496094 185.585938 96.996094 186.335938 95.492188 C 187.988281 92.34375 189.636719 89.417969 191.4375 86.640625 C 195.265625 88.894531 198.714844 91.21875 201.941406 93.617188 C 199.539062 96.019531 197.816406 98.496094 196.765625 101.121094 Z M 195.5625 80.566406 C 201.789062 72.464844 208.617188 66.6875 216.417969 63.164062 C 220.617188 68.414062 224.519531 73.964844 228.121094 79.890625 C 220.167969 81.617188 213.34375 84.542969 207.640625 88.667969 C 203.964844 85.890625 199.914062 83.191406 195.5625 80.566406 Z M 223.019531 103.371094 C 220.917969 100.746094 218.519531 98.195312 215.894531 95.71875 C 215.144531 94.96875 214.316406 94.21875 213.492188 93.46875 C 218.59375 90.167969 224.746094 87.84375 231.871094 86.566406 C 232.246094 87.316406 232.695312 88.066406 233.070312 88.816406 C 232.996094 88.894531 232.996094 88.96875 232.921875 89.117188 C 229.921875 93.917969 226.621094 98.644531 223.019531 103.371094 Z M 228.722656 131.5 C 222.71875 130.675781 216.792969 130.152344 210.941406 129.625 C 210.71875 129.625 210.566406 129.550781 210.34375 129.550781 C 214.769531 124.898438 218.820312 120.324219 222.570312 115.75 C 223.769531 117.773438 224.746094 119.875 225.570312 122.050781 C 226.84375 125.351562 227.894531 128.574219 228.722656 131.5 Z M 236.824219 96.695312 C 238.398438 100.296875 239.972656 103.972656 241.398438 107.722656 C 237.273438 107.570312 233.296875 107.121094 229.921875 106.519531 C 232.320312 103.296875 234.648438 99.996094 236.824219 96.695312 Z M 238.773438 78.390625 C 237.796875 78.464844 236.824219 78.539062 235.847656 78.617188 C 232.171875 72.164062 228.121094 66.164062 223.695312 60.460938 C 227.070312 59.5625 230.671875 58.960938 234.347656 58.738281 C 236.070312 58.660156 237.347656 58.660156 238.398438 59.035156 C 241.097656 60.160156 242 64.589844 241.546875 68.488281 C 241.171875 71.9375 240.121094 75.238281 238.773438 78.390625 Z M 213.042969 103.21875 C 210.191406 102.769531 207.339844 102.320312 204.566406 101.945312 C 205.316406 100.746094 206.367188 99.46875 207.714844 98.121094 C 209.59375 99.84375 211.390625 101.496094 213.042969 103.21875 Z M 216.71875 111.320312 C 213.117188 115.597656 209.292969 119.949219 205.089844 124.375 C 204.714844 122.199219 204.265625 120.175781 203.890625 118.222656 C 203.140625 114.699219 202.539062 111.773438 202.539062 109.148438 C 207.191406 109.746094 211.917969 110.421875 216.71875 111.320312 Z M 205.917969 140.953125 C 205.992188 139.378906 206.066406 137.878906 206.066406 136.527344 C 207.417969 136.675781 208.839844 136.828125 210.191406 136.902344 C 216.792969 137.503906 223.621094 138.175781 230.296875 139.152344 C 230.597656 141.328125 230.746094 143.429688 230.746094 145.378906 C 230.597656 153.179688 227.746094 158.65625 221.96875 162.03125 C 220.019531 163.15625 217.167969 163.832031 214.46875 163.757812 C 211.765625 163.683594 209.515625 163.007812 208.242188 161.730469 C 207.417969 160.90625 206.292969 158.882812 205.917969 153.929688 C 205.617188 149.953125 205.765625 145.152344 205.917969 140.953125 Z M 229.996094 114.023438 C 234.195312 114.699219 238.996094 115.148438 244.023438 115.148438 C 244.773438 117.324219 245.523438 119.648438 246.199219 121.824219 C 247.773438 126.625 249.351562 131.578125 251.148438 136.378906 C 248.898438 135.476562 246.425781 134.726562 243.574219 134.125 C 241.25 133.601562 238.996094 133.152344 236.671875 132.777344 C 235.695312 128.652344 234.347656 124.226562 232.472656 119.5 C 231.722656 117.546875 230.894531 115.824219 229.996094 114.023438 Z M 152.207031 41.257812 C 163.609375 35.183594 177.636719 32.632812 195.1875 33.308594 C 211.015625 33.90625 232.996094 37.65625 248.300781 51.910156 C 255.875 58.960938 261.726562 68.5625 265.402344 79.964844 C 260.601562 79.066406 255.425781 78.464844 250.023438 78.316406 C 248.898438 78.242188 247.847656 78.242188 246.800781 78.242188 C 247.773438 75.464844 248.523438 72.539062 248.898438 69.539062 C 249.351562 66.238281 248.976562 62.863281 248.074219 60.085938 C 246.800781 56.335938 244.472656 53.710938 241.25 52.433594 C 238.847656 51.460938 236.371094 51.460938 234.046875 51.535156 C 228.722656 51.835938 223.542969 52.8125 218.742188 54.460938 C 214.167969 49.210938 208.464844 43.734375 200.890625 42.308594 C 196.464844 41.484375 191.738281 42.160156 187.164062 44.332031 C 183.261719 46.132812 179.511719 48.984375 176.433594 52.585938 C 172.609375 56.9375 169.683594 62.113281 167.433594 68.1875 C 157.980469 65.714844 149.054688 65.339844 140.953125 67.214844 C 137.425781 68.039062 133.976562 69.238281 130.375 70.964844 C 132.550781 58.210938 140.429688 47.558594 152.207031 41.257812 Z M 142.527344 74.191406 C 149.429688 72.613281 156.929688 72.914062 165.183594 75.015625 C 165.183594 75.164062 165.109375 75.238281 165.109375 75.390625 C 163.234375 83.117188 162.484375 91.21875 162.03125 98.417969 C 157.980469 98.121094 153.855469 97.820312 149.730469 97.445312 C 147.480469 97.21875 145.230469 97.070312 142.980469 97.070312 C 140.351562 97.070312 137.800781 97.292969 135.175781 97.894531 C 131.875 92.195312 130 85.816406 129.699219 79.289062 C 134.050781 76.890625 138.328125 75.164062 142.527344 74.191406 Z M 161.582031 105.847656 C 161.355469 110.347656 161.058594 114.847656 160.53125 119.273438 C 153.40625 116.125 147.480469 112.222656 142.605469 107.496094 C 141.628906 106.597656 140.804688 105.621094 139.902344 104.722656 C 142.828125 104.421875 145.902344 104.644531 149.054688 104.945312 C 153.253906 105.246094 157.457031 105.546875 161.582031 105.847656 Z M 115.523438 117.171875 C 113.574219 121.972656 112.296875 127.375 111.773438 132.851562 C 104.871094 125.5 101.496094 116.796875 102.769531 109.222656 C 104.195312 100.21875 111.847656 92.945312 117.398438 88.21875 C 119.199219 86.71875 120.925781 85.292969 122.648438 84.015625 C 123.398438 89.941406 125.351562 95.644531 128.277344 100.894531 C 122.875 104.269531 118.523438 109.820312 115.523438 117.171875 Z M 124.523438 155.132812 C 122.648438 153.480469 121.449219 151.378906 120.550781 149.128906 C 125.726562 152.28125 131.578125 155.054688 138.402344 157.605469 C 133.375 159.105469 127.902344 158.132812 124.523438 155.132812 Z M 146.730469 152.730469 C 146.355469 152.582031 145.980469 152.503906 145.605469 152.355469 C 134.425781 148.53125 125.800781 144.328125 118.898438 139.152344 C 118.75 128.726562 122.199219 113.046875 132.328125 107.046875 C 133.902344 109.070312 135.550781 110.945312 137.503906 112.746094 C 143.429688 118.449219 150.707031 123.101562 159.40625 126.773438 C 158.132812 133.675781 155.957031 140.203125 152.28125 145.980469 C 151.003906 148.078125 149.128906 150.554688 146.730469 152.730469 Z M 169.007812 154.832031 C 164.507812 156.179688 159.632812 155.957031 154.832031 154.980469 C 156.332031 153.253906 157.53125 151.53125 158.582031 149.953125 C 162.257812 144.179688 164.808594 137.425781 166.457031 129.402344 C 167.359375 129.699219 168.257812 130 169.160156 130.226562 C 168.484375 138.253906 168.707031 146.429688 169.683594 154.605469 C 169.457031 154.679688 169.234375 154.757812 169.007812 154.832031 Z M 169.984375 122.800781 C 169.234375 122.574219 168.410156 122.273438 167.660156 122.050781 C 168.332031 116.796875 168.707031 111.546875 168.933594 106.371094 C 169.308594 106.371094 169.683594 106.445312 170.058594 106.445312 C 171.257812 106.519531 172.535156 106.597656 173.734375 106.671875 C 172.085938 111.773438 170.808594 117.171875 169.984375 122.800781 Z M 176.285156 132.101562 C 180.1875 133 184.238281 133.828125 188.511719 134.425781 C 190.386719 134.726562 192.339844 134.953125 194.289062 135.175781 C 191.0625 138.328125 187.613281 141.476562 184.011719 144.703125 C 181.535156 146.878906 179.136719 149.054688 176.585938 150.78125 C 175.984375 144.554688 175.910156 138.253906 176.285156 132.101562 Z M 253.175781 163.683594 C 245.300781 175.984375 230.519531 190.164062 204.492188 188.0625 C 190.238281 186.863281 182.0625 179.359375 178.835938 164.433594 C 178.460938 162.632812 178.085938 160.757812 177.785156 158.957031 C 181.835938 156.632812 185.4375 153.554688 189.039062 150.253906 C 192.414062 147.253906 195.5625 144.253906 198.640625 141.328125 C 198.265625 151.082031 197.964844 161.882812 203.214844 166.984375 C 205.839844 169.535156 209.816406 170.960938 214.394531 171.109375 C 218.445312 171.183594 222.570312 170.210938 225.71875 168.332031 C 229.996094 165.859375 233.222656 162.40625 235.320312 158.207031 C 237.121094 154.53125 238.097656 150.253906 238.171875 145.378906 C 238.171875 143.730469 238.097656 142.078125 237.949219 140.351562 C 239.296875 140.578125 240.648438 140.878906 242 141.179688 C 245.898438 142.078125 248.976562 143.128906 251.375 144.554688 C 254.152344 146.128906 255.800781 148.003906 256.625 150.253906 C 257.75 153.78125 256.625 158.28125 253.175781 163.683594 Z M 292.707031 100.820312 C 305.160156 112.898438 309.363281 133.078125 303.136719 151.003906 C 301.785156 154.832031 297.960938 163.984375 290.382812 165.632812 C 284.53125 166.910156 278.679688 163.308594 275.753906 160.980469 C 263.453125 151.378906 258.203125 135.175781 253.175781 119.5 C 252.652344 117.921875 252.125 116.273438 251.601562 114.699219 C 264.128906 113.421875 272.15625 108.847656 274.855469 101.421875 C 276.207031 97.667969 276.054688 93.769531 275.53125 90.316406 C 281.757812 92.644531 287.683594 95.945312 292.707031 100.820312 Z M 292.707031 100.820312 " fill-opacity="1" fill-rule="nonzero"/></svg>